<svg xmlns="http://www.w3.org/2000/svg" width="159.585" height="285.491" viewBox="0 0 159.585 285.491">
  <g id="レイヤー_2" data-name="レイヤー 2" transform="translate(0 0)">
    <g id="レイヤー_1" data-name="レイヤー 1" transform="translate(0 0)">
      <path id="パス_375" data-name="パス 375" d="M86.112,204.735l1.675-.372a11.2,11.2,0,0,1,.558-1.3c.414-1.293-.383-2.978-.558-3.909.879-.3,2.068.341,3.164,0v-.186h.558v-.186L93,198.593v-.186l2.606-.186v.186l2.42-.186,3.909.186h1.117v-.186l1.861-.372.186-.372h.372v-.186h.372l.931-1.117h.372l.558-.744h.372l.558-.744h.372V194.5a3.888,3.888,0,0,0,1.3-2.068h.186l-.558-.931c-.259-.1-.414-.062-.744-.186v-.186h-1.3c-.259,0,.072-.207-.186-.186v.186a8.013,8.013,0,0,0-1.861.558v.186h-.372v.186H105.1v.186h-.558v.186h-.372v.186h-.372l-.186.372h-.372v.186c-.879.331-2.482-.227-2.978-.372H98.024l-2.42.186V192.8L93,192.989v.186h-.972v.186h-.372v.186h-.931v.186a9.806,9.806,0,0,1-1.489-.372H87.6v-.186h-.558v-.186h-.558V192.8h-.558c-.258,0,.083-.176-.186-.186v.186c-2.554,0-2.151-1.034-3.722-1.861v-.372c-.538-.134-.62-.2-.744-.744a2.068,2.068,0,0,1-.931-.558v-.186l-.558-.186-.186-.372-.744-.186-.372-.558-.744-.186-.186-.372h-.372l-.558-.744h-.372l-.186-.372-1.675-.558-.186-.372-.931-.186V184.8l-.744-.186v-.186l-1.3-.186v-.186l-.744-.186v-.186l-1.3-.186v-.186h-.558v-.186h-.558v-.186c-1.034-.321-3.888.3-4.467.558v.186l-.744.186v.186h-.558v.186l-.744.186v.186h-.931v.186l-1.489.186v.186h-.372v.186l-.931.186v.186H57.45l-.186.372-2.068.744.186-1.117h.186v-1.117h.186v-.558h.186l.186-2.792h.186V180.7H56.5v-.558h.186v-.558h.186l.186-1.675h.186v-.744h.186v-.558h.186l.186-2.233h.186a6.07,6.07,0,0,0-.372-3.164V164.14H57.8l.186-.745h.186v-.558h.186v-.5h.186v-1.117h.186V158.8h.207v-.6h.186l.372-1.117h.186v-.372l.372-.186.186-.744h.186v-.931h.186v-.186h-.186v-.744h-.186l-.186-.744h-.186v-.558h-.186l-.186-.744h-.186c-.238-.651,0-1.592-.372-2.068a8.851,8.851,0,0,1,.186-2.606l2.792-.186v.186h.744l2.792,1.7,2.068.744.186.372,1.117.186v.186l.744.186v.186h.558l.186.372h.372l.372.558h.372l.186.372.931.186v.186l.744.186v.186h.372l.186.372.931.186v.186l.744.186v.186l.744.186.186.372,1.117.372.186.372.744.186.372.558.931.186.372.558,1.117.372.186.372h.372v.186h.372l.744.931,2.792,2.233-.186,1.675c1.21,3.33,7.621,2.068,11.167,3.164h1.117v.186h1.1v.186l1.117.186v.186c1.034.29.848,1.034,1.3,1.861h.186v.372h.186V169h.186v.372h.186v.372h.186v.372h.186v.372h.186v.372h.186v.372l.931,1.117.744.186v.145l.931.744v.372l.558.186v.186h.372l.186.372h.372l.186.372h.744v.186h.372v.186l1.675.186v.186l1.117.372v.186h.372v.186h.372v.186l.931.186.186.372,1.675.558.372.558.744.186.186.372h.372v.186h.579v.186h.372v.186l1.675.372v.186h.372v.186h.558v.186h.558v.186h.558v.186h2.978v.269h.558v.186h.558v.186h2.233a10.7,10.7,0,0,0,2.978-.372l1.675-.186v-.186l.744-.186v-.186h.558v-.186l.558-.186.186-.372h.372l.372-.558h.372l.186-.372h.372l.744-.931.372-.186v-.372l.372-.186.186-.558h.207v-.372l.372-.186v-.372l.931-.744v-.372l1.117-.931v-.372l.372-.186.186-.744.558-.372v-.372l.372-.186v-.372l.372-.186.186-.558h.186a1.448,1.448,0,0,0,.372-.744l2.233.186,1.861-.931.372-1.117h.186l-.186-2.42h.186l.186-.744.372-.186v-.372l.745-.558v-.372l.372-.186v-.372h.186l.372-1.117h.186v-.765h.186v-.744h.124v-.558h.186v-.558h.186v-.558h.186v-.744h.186l.372-2.978v-1.675h.186v-2.42h.186V147.43c.631-2.13.31-5.17.931-7.238v-2.233h.186l-.186-5.77-.186-1.117h.186v-1.489l.186-2.42h-.186v-3.722h-.186L152,120.98h.186v-.744H152l.186-3.164h.186V115.81h.186v-1.489h.186l.186-2.42h.186v-.744h.186v-1.344h.186v-.744h.186v-.744h.186v-1.489h.207v-1.489h.186V102.74h.186v-2.606h-.186l-.186-2.606h-.186v-.744H153.7v-.744h-.186v-.372h-.186v-.186h.186v-.186h-.186v-.558h-.186l-.186-1.861h-.186v-.744h-.186l-.186-2.233h-.186v-.972H152v-.931h-.186v-.517h-.186v-.372h-.186v-.372h-.186a5.832,5.832,0,0,0-1.861-2.606v-.372h-.372l-.186-.558-.558-.372v-.372h-.186l-.372-.558-1.489-1.3-.558-.744H145.3v-.227h-.372l-.186-.372-1.117-.372v-.186h-.372v-.1h-.558V78.4h-.372v-.227h-.558v-.186h-.372V77.8l-1.117-.186v-.186h-1.117v-.186H138.04v-.186h-.517v-.186l-1.861-.186v-.165h-.372l-.558-.744h-.372l-.186-.372H133.8l-.186-.372h-.372v-.186h-.372v-.186h-.558v-.207h-.558v-.186h-.744v-.186h-1.117v-.186h-.744V73.7h-.558l-.186-.372h-.372v-.186l-.744-.186v-.186h-.558v-.186l-2.647-.372h-1.489v-.186h-.579v-.186h-.931v-.186h-.372l-.186-.372-.744-.186v-.186l-.744-.186V70.54h-.558v-.227H118.1v-.186l-1.489-.186-.558-.744h-.372l-.372-.558h-.372l-.186-.372h-.372V68.08h-.372v-.145l-.372-.186v-.372l-.372-.186-.186-.744-1.468-1.3c-.165-.248-.134-.744-.372-.931l-.744-.186-.186-.372-.744-.186v-.186l-3.909.186a.486.486,0,0,1-.558.186v-.186H103.98v-.186H103.4v-.207l-1.675-.186V62.7a4.85,4.85,0,0,0-2.792.372c-1.22,0-2.978,1.189-2.42,2.792H96.7v.372h.186l.186.558h.186v.186h.372v.227l.744.186v.186h2.792v.186l1.117.186v.186h.372v.186h.558v.186h1.675V68.7a.4.4,0,0,0,.372-.186l2.068.186a2.068,2.068,0,0,0,.558.931h.186l.186.744h.186a1.965,1.965,0,0,1,.558.931l.558.186v.186h.372l.186.372,1.117.372.744.931.744.186v.186h.372v.186l1.117.372v.165h.558v.186h1.117v.186l.744.186v.186h.558v.186h.372v.186h.558v.186h.558v.186h.558v.186l1.489.186v.207h.558V76.7h.931v.186h.931v.186h.744v.186l1.117.372v.186h.372v.186h.558v.186h.372v.186h.931v.207h.931v.186h1.3v.186h.372v.186l.931.186.186.372.558.186v.186h.372l.372.372h.372v.186h.372L133.2,81h.558v.186h.372v.186l4.136.186v.124l1.117.186v.186h.372v.186h.558v.186h.558v.186l.744.186v.186h.372l.186.372.744.186.372.558h.372l.744,1.117h.352l.372.558h.372l.186.372.931.744v.372l.372.186c.259.424.176,1.034.372,1.489h.186V89.5h.186v.931h.124v.558h.186v.931a9.533,9.533,0,0,1,.372,4.136h-.186v1.489a17.134,17.134,0,0,1,0,8.376v2.068h-.186v1.489h-.186v.558h-.186v1.117h-.186v2.42h-.186v1.675h-.186V116a18.737,18.737,0,0,0-.558,5.584c0,.724-.165,2.016.186,2.42v2.42l-.558.186v.186l-.744.186v.186l-2.068.372v.186h-.558v.186h-.558v.186H141.7v.124h-.744v.186a.486.486,0,0,1-.558-.186H138.33v.186l-1.861-.186v.186h-1.861v.186h-.558v.186a10.34,10.34,0,0,1-3.536-.186H129.4V128.4h-.744v-.186l-1.117-.372v-.186h-.558v-.186h-2.606v.186h-.744v-.186l-.558-.186-.186-.372-1.3-.186v.186a3.867,3.867,0,0,1-1.489-.186l.372-4.136h.186l.186-1.861h-.186l.186-1.861h-.186v-.558h-.186l-.186-3.164h-.186v-.372h-.145v-.558h-.186v-.372h-.186v-.558c-.155-.362-.548-.755-.744-1.117-.372-.114-.155,0-.372-.186l-1.117.186v.186h-1.117v.186c-1.168.786-.321,2.068-.744,3.536a13.443,13.443,0,0,0-.372,3.909l-.186,5.17h-.145v2.42h-.186v1.117H114.4v2.068a14.476,14.476,0,0,1-.372,3.536v1.489h.186l-.186,2.792h-.186v.372h-.186v-.186h-.744v-.186h-.372v-.186l-.744-.186v-.186h-.744v-.186l-1.675-.186v-.124h-2.233v-.186H103.98a22.489,22.489,0,0,1-5.584.372H96.163v-.186H95.6v-.186l-.744-.186v-.186H94.3v-.186l-4.281-.931v-.186l-1.1-.207v-.186l-1.117-.372v-.186h-.372v-.186l-1.137-.1v-.186H85.74v-.186h-.558v-.186h-.558v-.186h-.558v-.186h-.744v-.186h-.372l-.186-.372H82.39l-.186-.372h-.372v-.207h-.372l-.372-.372h-.372l-.372-.558H79.97v-.186l-.744-.186v-.186c-.61-.279-.869-.083-1.3-.558s0-1.22-.186-1.861l-1.3-1.489-1.675-.186v-.186l-1.117-.186v-.248H73.27v-.186l-2.42-.372v-.186l-3.35.186c-1.034,0-3.34-.517-4.136.186a6.421,6.421,0,0,1-2.068-.186,6.721,6.721,0,0,1,.372-1.675v-1.489h.186v-.558h.186v-.744h.186a.476.476,0,0,0-.186-.558v-.558l-.744-.558v-.372H61.11c-.4-1.034.434-2.161,0-3.35h-.1l-.186-.744h-.186l-.558-.744h-.744v-.186h-.186v.186h-.931a11.375,11.375,0,0,0-1.675.931v3.743h-.186l-.186,2.792a2.244,2.244,0,0,1-1.675-.744l-.186-.372h-.538V120.4H53.21v-.186h-.372v-.186h-.931v-.186l-2.068.186v-.186h-.931v-.186h-.931v-.186H46.654v-.186H43.863a.3.3,0,0,1-.372.186v-.186l-2.068-.186v-.186h-.558v-.186h-.538v-.186H39.4v-.186l-4.653.186v.186H34.37l-.372.558-.744.186-.186.372h-2.42l1.489-4.467.372-.186v-.372H32.7l.186-.744h.207v-.558h.186v-.372h.186l.186-.931h.186v-.538h.186v-.744H34.2l.186-.744h.186v-.579h.186v-.372h.186v-.558h.207V108.3h.186l.186-.744h.186l.186-1.117h.186v-.372h.1v-.558h.186l.186-.744h.186v-.331h.186v-.372h.186l.372-1.117h.186v-.579h.186V102h.186v-.558h.207l.393-1.137h.186v-.372l1.675-1.489v-.372l.372-.186.931-1.675h.372v-.186h.744v-.165h.931v-.186l1.117-.372v-.165H45.5l.186-.372h.372v-.186h.372v-.186l2.606-.372v-.186H49.4l.186-.372h.372l.186-.372,2.233-.744v-.207h.372v-.186h.372l.372-.372h.372l.414-.579h.372v-.186l.744-.186v-.186l1.861-.372v-.186h.372V89.69l.931-.186v-.165H59.5v-.186h.744v-.227h1.3l.372-.558h.558v-.186h.6v-.186l.744-.186v-.186l.931-.186,1.427-1.613,1.675-.372v-.186h.393l.186-.372H68.8v-.207h.558V84.5h.372v-.186h.579v-.186l1.1-.372v-.186h.372v-.186a1.437,1.437,0,0,1,1.117-.372l2.585,8.562L75.3,93.64H75.11l.186,1.675H75.11L74.945,97.2h.186l.186,1.489h.165v.372h.186v.372h.186c.269.838-.869,1.592-.186,2.42.093,1.551.9,1.241,2.068,1.675v.186h.744l.186.372h.372v.186l1.3.186v.186a14.745,14.745,0,0,0,4.467.372l8,.186v-.186l1.117-.186v-.186H94.3v-.207h.558v-.186h.931v-.186h.931v-.186h.744v-.186l4.136-.372v-.186h.372l.372-.558h.372l.186-.372h.372l.186-.372h.744v-.186l.744-.186.931-1.117.186-.931.372-.186v-.372h.186V98.48l.372-.186.331-1.1.372-.186.186-.744.372-.186v-.372h.186v-.372h.186l.186-1.117h.186V91.945h-.186l-.558-.744h-.931c-.258,0,.072-.217-.186-.186V91.2h-.931l-1.861,1.675v.372l-.372.186-.931,1.117-1.117.931v.372l-.744.558v.372l-1.117,1.3-1.3.145v.186h-.538V98.6l-1.3.186v.186H96v.186h-1.51v.186h-.744v.186h-.558v.186H92.44v.186h-.414v.186h-.744v.207h-.558v.186l-2.937-.186v-.186H85.182v.186h-.744v-.186H82.948v-.186H82.2v-.186h-.744l-.186-.372H80.9v-.186h-.372V99l-.558-.186.372-1.613h.186l-.186-3.536h-.186l.186-2.668h-.186v-.372H79.97L79.784,89.5h-.165v-.372h-.207l-.558-2.42h-.186l-.186-1.3H78.3v-.558h-.186l-.372-1.861h-.186v-.372h-.186v-.558h-.186V81.5h-.186v-.538h-.186V80.4H76.62v-.558h-.186v-.558h-.186l-.186-.931h-.186l-.558-.744-1.3-.186v-.186h-.186v-.186l2.978.186v-.186c.1,0,1.675-.186,1.675-.186v.186h.186v-.186h.951v-.186h.744v-.165h.744V76.31l1.613-.372.186-.372h.558V75.38h.372v-.186h.372l.186-.372h.393l.372-.558.744-.186.186-.372,4.281-1.489L91.3,71.1l.372-.186V70.54l.558-.372.372-1.117.372-.186.372-1.117h.186l.186-.558L94.095,67v-.372l.558-.372v-.372h.186l.186-1.3h.186l.372-1.117.579-.186v-.207h.372l.186-.372h.372l1.137-1.282v-.414h.186V60.49H98.6v-.517h.186v-.744h.186a2.968,2.968,0,0,0-.186-2.233V55.837l1.675,1.117h2.792l.186-.372h.372l.372-.372h.372l.744-.931.372-.186.186-.558h.372l.744-.931h.372v-.186l.558-.372v-.372l.372-.186.186-.744h.186L108.84,51h.186v-.558h.186v-.558h.186v-.558h.207v-.931h.186v-.931h.186V46.345h.186l-.372-2.233h-.186v-.372h-.186l.186-.558a2.657,2.657,0,0,0,1.3-.744V42.25h.372l.186-.372h.186v-.931h.186v-.372l.558-.372V39.83l1.489-1.117.558-1.675h.186v-.372h.145V34.6l.372-4.136h.186V30.09h.186v-.558h.186V28.291l.372-.186.186-.558h.186l.393-1.7h.186v-.372h.186c.393-1.117-.341-2.926-.558-3.536V21.2h-.186v-.372h-.186v-.558H116.1l-.372-1.861h-.186v-.372h-.186l-.186-.744L114.8,17.1v-.352l-.372-.186v-.372l-1.117-.931-.372-.558-.744-.186L112,14.145l-.558-.186v-.186h-.372v-.186h-.434l-.186-.372h-.372v-.186h-.372v-.186l-.372-.186-1.075-1.282L107.7,11l-.372-1.3h-.186l-.186-.558-.372-.186V8.562l-.372-.186-.186-.744-1.861-2.068h-.372l-.186-.393h-.372l-.558-.744H102.3l-.186-.29h-.372V3.909L101,3.722V3.536h-.558V3.35h-.372V3.164l-1.3-.186V2.792H98.4V2.606h-.372l-.186-.372h-.372V2.068h-.372V1.861h-.744V1.675h-.558V1.489L93.371,1.3V1.117h-.744V.931h-.372V.744H91.51V.558H89.649V.372h-.724V.186h-.931V0H84.623V.186h-.372V.372h-.744V.558L81.439.744V.931l-1.82.372v.186h-.372v.186h-.765v.186h-.558v.207h-.558v.186H76.62V2.44l-.744.186v.165L74.2,3.164V3.35l-.786.186v.186H72.9v.186h-.372v.227h-.558v.186h-.372v.186l-1.117.186v.186l-.744.186v.1h-.558v.186l-1.489.186v.186h-.744v.186h-.765V6.1H65.8v.186h-.558l-.186.372h-.372v.186l-.744.186-.372.558H63.2l-.372.558h-.372l-1.282,1.53-.558.372-.744,2.068v.931h-.186v.558H59.5v.744h-.186l-.186.744-.372.186v.372l-.372.186-.186.744-.372.186v.372h-.186v.372l-2.978,2.42v.558h-.186v.558h-.186v.931H54.1V23.1h-.186v1.1h-.145v2.068a7.093,7.093,0,0,0,.744,3.909l.372.186v.372l.744.558.186.372h.372l.186.372h.372l.186.372H57.3v.186h.372v.186h.558v.186a12.553,12.553,0,0,0,3.536.372l1.675-.558.558-.744h.372a10.475,10.475,0,0,0,1.117-.744v-.372l.372-.186v-.372l.372-.186v-.744h.186c.31-.962-.134-1.768.558-2.42.29-.972.207-.248.931-.558v-.186l.744-.186V25.85h.372c.465-.31.321-.744,1.117-.931l-.558,1.861,1.3,1.489.744.186.186.372h.931l.744.931h.186v.372l.931.744.186.558h.186l.186.372h.31l.744.931.372.186.558,3.164h.186l.207,1.137h.186V37.6h.186v.558h.186v.931H78.3v.558h.186V40.2h.186v.558h.186a2.533,2.533,0,0,1,.558,1.117c-.434.207-.827.321-1.3.558v.186h-.558v.186h-.372v.186H76.62v.186h-.558v.186h-.579v.186h-.558v.186h-.372c-.445.227-.724.61-1.3.744-.062.352-.4.962-.186,1.489l.372.186v.372l.558.186c-.124.962-.548,1.106-.558,2.233-.207-.155,0,0-.186-.186-.972-.651-.62-2.192-1.117-3.35h-.165v-.372h-.186v-.579h-.186l-.372-1.117h-.186v-.372l-.724-.579-.186-.372h-.372l-.186-.372-1.324-.145v-.145h-.372l-.186-.372-2.233-.372V40.8c-1.034.29-1.872-.083-2.42.744-.486-.538.062-1.789-.186-2.606h-.186v-.786h-.186l-.186-.744-.372-.186-.744-1.117c-.434-.176-2.647-.962-3.536-.558v.186a1.8,1.8,0,0,1-.744.372c-.083.4-.114.527-.372.744a3.443,3.443,0,0,0,.372,1.861l.372.186v.393h.186l.186,2.978h.186c.062.372-.186.372-.186.372v3.164H57.45l.186,2.42H57.45V49.9h.186v1.282h.186v.744h.186V52.3h.186v.558h.186v.91h.186V54.7h.186v1.137h.186v.744h.186v.744h.186V57.7H59.5v1.117h.186v1.158h.186v.744h.186v1.3h.186c.124.465-.2.7-.186.931h.186v1.117h.186v1.075h.186L60.8,66.26h.207v.372h.186l.372,1.861h.186l.186.744h.186V69.8h.186v.517H62.5l.186.744h.186v.931h.207v.744h.186v.558h.186v.558h.186l.372,1.117.744.558.186.372a9.865,9.865,0,0,0,2.606,1.117H69.03V77.2h.931v-.186l.744-.186.372-.558,2.42.558v.186l-.931.186v.186h-.372l-.558.744-.744.186v.269l-1.3.186v.186h-.414v.186h-.558v.186h-.558v.186H67.5v.1h-.744v.186l-1.117.186v.186h-.372v.186h-.558l-.186.372-1.117.372-.186.372h-.372l-1.675,1.861-.931.186v.227l-.744.186v.186h-.744v.186h-.931V84.5H57.45v.186h-.931l-2.75,1.675H53.21v.186h-.558v.186l-.744.186v.186h-.414l-.372.558h-.372l-.186.372-1.675.372v.186H48.33l-.186.372H47.4v.186c-.465.093-1.324-.424-2.068-.186v.186h-.558v.186h-.31v.186H43.9v.186l-.931.186-.186.372-.744.186v.186l-.744.186v.165l-2.792.744-.931,1.117-.372.186v.372l-.372.186v.372l-.372.186v.372l-.372.186v.414l-.558.372v.372l-.372.372h-.414l-.372.372v.372L34,97.177l-.186.744-.372.186v.558h-.186v.372h-.165V99.6h-.207l-.372,1.117h-.186v.372h-.186v.372h-.186l-.186.931h-.186v.372h-.186v.558h-.186l-.186.744h-.186l-.558,1.861H30.09v.372H29.9v.372h-.186v.372h-.186v.372h-.186v.558l-.372.186v.744h-.186v.372H28.6v.931h-.186v.558h-.186v.372h-.186v.538l-1.489,2.42-.931,4.136h.227c.124.507.1.889.186,1.3a13.722,13.722,0,0,0-2.978.372c-.486-1.313-.186-3.743-.186-5.4v-1.489h-.227v-.931l-1.3-2.068c-.7-.279-1.634-.527-2.42-.744l-3.35.186v-.186h-.558v-.186l-5.025.931h-1.3c-1.975,0-3.2-.455-3.909-1.675l-.931.186-.186.372-1.489.186-.186.372a3.1,3.1,0,0,1-1.3.744l-.186.558H.31v.372H.124A6.3,6.3,0,0,0,.31,114.3l.372.186v.372l.558.372c.259.548-.1,2.3.186,2.978h.186v.372H1.8v.744h.186v.372h.186v.558h.186v.372h.186l.186.931h.186l.186,1.1h.186v.393h.186l.186,1.675h.186v.393h.186v.558h.186v.476H4.4v.372h.186a1.417,1.417,0,0,1,.372.744H5.17c.1.331-.807,1.251-.931,1.489l-.186.931H3.846v.6H3.66v.558H3.474L3.1,132.912H2.916l-.558,3.722.744,1.282-.186,3.35H2.73a3.474,3.474,0,0,0,.372,2.068l.186,2.606h.186l.186.744h.186v.372l.744.558c.372.538.362.962.931,1.3,0,1.251-.393,1.882-.372,3.35v.931h.186l.186.744h.186v.372l.372.186v.372l.931.744.186.744.558.372v.372l.372.186a1.923,1.923,0,0,1,.372,1.3l.558.186.186,1.3H9.43v.372h.186l.186.931h.186v.372h.186v.372h.165v.558h.186v.558h.186v.558H10.9v.558h.186v.372h.186v.558h.186v.372h.186v.558h.186l.372,1.117h.207c.259.507,0,1.634.372,2.068a5.319,5.319,0,0,0,1.675.931l.372,1.861.372.186.186.558h.186v.186l-.372.186a4.953,4.953,0,0,0-.558,1.861h.186l.558,1.675h.186l.186,2.068.558.372v.558h.227v.372h.186l.186,1.117H17.1l.186,1.117h.186v.372h.1v.558h.186v.372h.186l.186,1.117h.186v.372h.186v.558l.372.186.186.744.372.186v.372h.207v.372l.372.186v.331l.372.186.186.745h.186l.372,1.117h.186v.558h.186v.372h.207l.186,1.117h.186l.186,1.117h.186l.186.744h.186l.186.744.372.186.186.744,1.117.931.931.186.186.372h.372l.558.744h.372l.372.372h.372v.186h.372l.186.372.931.186v.186l.744.186v.186l3.35,1.3H36.6v-.186h.744V200.6h.744v-.186h.558v-.186h.558v-.186h.372v-.186h.558v-.186h.372v-.1l.744-.186v-.186l1.117-.186v-.186h.372l.186-.372,1.117-.931h.186a4.788,4.788,0,0,1-.372,1.675v1.861h-.186v2.068H43.49v2.233H43.3v2.606a7.652,7.652,0,0,0-.372,3.722h.186v.931H43.3l.186,1.117h.186l.186.744h.186v.372h.186l.558.744,2.233.558a2.471,2.471,0,0,1,.744-.558c.114-.279.072-.383.186-.744h.186l-.186-1.3h-.186l.186-2.42h.186V209.9h.186v-1.3h.186v-2.233H48.7v-2.233h.186v-1.861h.186l.186-2.233h.186v-.476h.186l.186-1.675H50l.186-1.117h.186l.186-.558h.372c.321-1.21,1.634-1.313,2.606-1.861h.372l.372-.558h.372l.744-.931.744-.186.186-.372h.372v-.186h.372v-.186h.558v-.186l1.117-.372v-.186h.372V191H59.5l.186-.372.744-.186.186-.372h.393v-.186h.744V189.7h.558v-.186h.372v-.186h.744v-.186H63.8v-.186h.558c.517-.207,1.375-.982,2.233-.745v.186h.744v.186l.744.186v.186h.558v.186h.372v.186h.558v.186h.372v.186h.744v.186h.558l.186.372h.558l.186.372.558.186V191l.744.186.558.744h.372l.186.372.558.186v.186l.744.186.186.372.558.186v.186H77.2v.186a2.2,2.2,0,0,0,.931.558v.372c.827.227.662.713,1.489.931.145.507,0,.424.558.558v.372h.372l.186.558.372.186v.372l.372.186v.372h.207v.372h.186v.372l.372.186v.558h.186v.372h.186l.186.931h.186v.558h.186v.744h.186v.558h.186v.744l.931,1.3c.372.062.776.362,1.3.186v-.186h.372ZM103.049,48.95v.558l-.558.372-1.675,1.82h-.372a1.913,1.913,0,0,1-.558.931H99.7V53l-.744.558v.372h-.186l.558-4.653a4.9,4.9,0,0,0,2.606-2.606h.186c.238-.61-.217-1.189,0-1.489l.186-.372c1.148.134.879.744,1.489,1.3a6.7,6.7,0,0,1-.744,2.833Zm5.77-17.309-.186,2.233h-.558l-.186-.558H107.7v-.372l-.372-.186-.186-.931-.372-.186-.186-1.117H106.4v-.186a8.613,8.613,0,0,1,2.42,1.3ZM98.769,9.678c.114-.372,0-.155.186-.372l.372.558h.186l.186.744.372.186.372,1.117.372.186v.372H101v.372l.372.186v.414l.372.372v.372h.186v.29l.372.186.186.744.372.186.186.744.352.207.186.558h.186l.372,1.117h.186l.186.558.372.186.186.744.372.186v.372l.372.186v.372l.372.372v.372h.186v.372l.372.186V22.5l.372.186v.372a5.718,5.718,0,0,1,.931,1.861c-1.489-.321-2.523-1.117-4.467-1.117l-.744-2.068h-.165v-.558h-.186v-.5H102.3v-.372h-.186v-.372h-.186v-.393h-.186l-.186-.931-.931-.744V17.5h-.186v-.372H100.3v-.579h-.186v-.558h-.227v-.372H99.7v-.558h-.186v-.579h-.186v-.517h-.186v-.931h-.186C98.769,12.481,98.427,10.051,98.769,9.678Zm-1.117,20.68c0-.972.072-.724.372-1.3a7.052,7.052,0,0,1,1.861-.372l.558,1.675h.186l.372,1.7h.186v.372h.145V32.8l.372.186.186.931h.186v.372h.186v.372l.372.186v.31l.372.186v.372l.372.186c.248.445-.093.507.372.931v.558h-.186l-.372.558h-.372l-.558.744h-.372l-.186.372h-.372v.227h-.372v.186H100.4v.186a2.606,2.606,0,0,1-1.675-.186c-.372-.114-.155,0-.372-.186h-.124v-.558c.817-.217,1.034-.92,1.675-1.3.186-.838.8-2.4,0-3.164-.186-.734-.538-.776-1.117-1.117v-.186h-.372v-.186h-.393c-.1-.072-.134-.259-.372-.372-.052-.662-.455-1.613,0-2.068Zm-34.246-8.21h-.558l-.744.931h-.186v.372H61.73l-.186.744h-.186v.558h-.186v.558h-.165v.372H60.8l-.372,1.675h-.186l-.186-.744h-.186l-.186-3.164h.186c.227-.755.134-.248.558-.558l.186-.372h.393l1.117-1.3a2.616,2.616,0,0,1,1.3.558Zm3.164-5.4c.3-1.623.858-3.526,2.42-3.909v-.186h.372C68.782,13.949,67.717,16.069,66.57,16.751ZM85.74,4.653c.962-.279,2.875.548,3.536.744s1.4-.227,1.716-.227v.186l3.722.558-.62,1.716h-.186l-.372,2.792a9.761,9.761,0,0,1-2.544-1.3l-.744-.186-.558-.744h-.372V8h-.393l-.186-.372L87.6,7.238l-.186-.372L86.3,6.514V6.328l-1.117-.372V5.77c-.6-.248-.62.165-1.117-.372-.207-.155,0,0-.186-.186a17.4,17.4,0,0,0,1.861-.558ZM83.879,10.8c1.2.134,1.685.879,2.606,1.3.155.207,0,0,.186.186v.186l-2.233.186-.558-1.675Zm-2.068,8.934.558-.372v-.372l.558-.372v-.558h.186v-.372H83.3v-.372h.186l.372-.558A12.346,12.346,0,0,1,90,17.5h.993v.186l1.117.186v.186l.558.186a13.31,13.31,0,0,0,.558,1.3V20.68h.186a7.507,7.507,0,0,1-.558,4.136c-.414.693-1.106.744-1.861,1.117v.186h-.558v.186h-.372v.186H89.5v.186a14.631,14.631,0,0,1-4.281-.372v-.248l-.786-.207v-.186l-1.3-.186-.414-.538h-.372l-.186-.372H81.79l-.1-.372H81.5l-.227-.414H80.9l-.186-.372h-.186v-.372h-.186a4.281,4.281,0,0,1,1.489-3.309ZM92.027,40.761c-.786,0-1.324,0-1.675-.372h-.186a9.451,9.451,0,0,1,1.117-1.675c.207.155,0,0,.186.186a4.384,4.384,0,0,1,.558,1.861ZM78.109,16.751l-.372.186V17.5l-.558.372v.372h-.186l-.372.558h-.372c-.2.724-.424.558-.931.931l-.744.931-.558.186v.186a4.932,4.932,0,0,1-2.068-.372v-.186h-.931v-.186c-.207-.207-.083,0-.186-.372h.186v-.372l.558-.372v-.186l.558-.186v-.372l.931-.744v-.372l.372-.186v-.372l.393-.207.186-.744.372-.186v-.558h.186v-.372h.186v-.372l.372-.186v-.558l.352-.124v-.558h.186v-.372h.186l.393-1.137c1.251.072,1.034.517,1.861.744l.186.558h.186v.372h.186v.558h.186Zm1.117,12.1v-.558H79.04V28.1a17.682,17.682,0,0,0,3.909,1.489,4.8,4.8,0,0,1-.558,1.861H82.2c-.217.734.7,1.654.931,2.068l2.978.186V33.5h1.117v-.186a3.474,3.474,0,0,1,1.3.186v.558l-.372.186v.372l-.744.558v.372l-1.489,1.3-.558.744c-.486.352-.972.424-1.3.931l-.931-.186-.414-1.117h-.186l-.186-2.42H82.2V34.06h-.186V33.5h-.186v-.414h-.145v-.517H81.5l-.372-1.861-.372-.186v-.372ZM72.525,73.7H71.036l-.744-.931-1.3-.931L68.8,71.1l-.372-.186-.558-3.35h-.186l-.186-.744h-.186l-.186-1.489h-.186v-.558h-.186v-.558H66.57v-.558h-.186v-.579h-.207l-.186-2.42H65.8v-.931h-.186V58.443h-.165V57.326h-.186V56.4h-.186v-.558h-.186v-.372h-.186V54.72h-.186v-.744h-.186l-.372-1.861h-.186V51.7h-.186v-.372L63.075,51v-.931h-.186v-.931h-.227a15.779,15.779,0,0,1,.186-4.281v-.393c.207.155,0,0,.186.186a2.068,2.068,0,0,1,.931.558v.186h.372v.186h.372l.186.372h.372v.186c.372.207.455,0,.744.372.207.155,0,0,.186.186h-.186v.186h-.744l-.186.372-1.117.372c-.124.486-.186.538-.558.744V49.86l.372.186v.372l.331.248v.186h.558a3.309,3.309,0,0,1,1.3.931c1.1,0,1.934,0,2.42-.558.207.207.083,0,.186.372h.186l-.186.744h-.186v.372l-.372.186a3.206,3.206,0,0,0-.517,2.937V56.4h.186c.558.962,1.727,1.034,2.42,1.861a3.367,3.367,0,0,0,2.068-.372c.858-.227.817-.538,1.117-1.3h.124v-.931H73.6V54.534h-.186l-.186-.931.186-1.117H73.6a.31.31,0,0,0-.186-.372c-.062-.476.186-.558.186-.558l-.186-1.489a5.273,5.273,0,0,1,1.344.6v.186c1.034.424,3.247.61,3.909-.186.693-.2.662-.724,1.117-1.117,0-.858.155-2.068-.372-2.42h-.558v-.186l-1.117-.186v-.227h-.186v-.186l.931-.186v-.186h.558v-.186h.372V45.6h.372l.186-.372.744-.186.186-.372a4.643,4.643,0,0,0,1.3-1.489h.372l.372,1.489h.186a1.448,1.448,0,0,1,.372.744,5.439,5.439,0,0,1,1.3.744h.372v.186l1.117.186v.186h.372V46.9h1.117v.186h.558v.186h.372v.186l2.42.558v.186h.372v.186h.517V48.6l.558.186v.931H92.44v7.817h-.186l-.372.558H91.51l-.186.372h-.558l-.931,1.117v.393h-.186v.558h-.186v.476h-.186v.744H89.09v1.117h-.165v.744h-.207l-.186.744-.558.372v.414l-.372.372v.372h-.186v.372h-.186v.372h-.186l-.186.579-.372.186-.186.744h-.186l-.186.372h-.372l-.186.372H85l-.207.393h-.372v.186h-.558v.186h-.372l-.186.372h-.372l-.207.29h-.372l-.558.744-.744.186-.372.558h-.331l-.186.372-.538.207v.186h-.372l-.186.372-1.117.186v.186H77.2V73.5h-.372v.186H74.759C73.983,73.7,72.794,73.911,72.525,73.7Zm-48.392,75.38c.507-.145.424,0,.558-.558h.372l.186-.558h.186V147.6l.372-.186v-.372l.372-.186v-.372l1.117-.931h.372v-.372h.372a5.046,5.046,0,0,0,.186-1.3c-.238-.2-.2-.331-.372-.558H27.67v-.372l-.372-.186a4.477,4.477,0,0,0-2.233-1.675v-.558c.207-.155,0,0,.186-.186.713,0,1.53-.29,1.861,0,1.468.393,1.437,2.265,2.606,2.978v.414h-.186l-1.117,1.3.744,3.35h.186v.931h.186V152.1h-.186l-.558.744h-.558v.186c-1.261-.052-1.6-.538-2.606-.744l-.186-.744H25.25V150.8h-.186c-.393-.517-.92-.558-1.117-1.3C24.154,149.25,24.03,149.456,24.134,149.084Zm-6.556-18.24.372-.186V130.1h.186v-.372h.186a6.99,6.99,0,0,0,.186-2.606h.186a2.067,2.067,0,0,0,.372.372v1.117h.186v.372h.186a14.237,14.237,0,0,1,.372,1.489H20c.217.589,0,1.251.372,1.675v1.117h-.186v.186l-1.3.186v.186h-.744v.186h-.558v.186h-.517v.228h-.744v.186h-.372l-.372.558-1.675.186c.279-.889.155-.2.744-.558l.186-.372a4.591,4.591,0,0,0,1.716-2.275h.372a1.541,1.541,0,0,1,.372-.744h.186Zm-9.306-10.8v-.558H8.127v-.744H7.941v-.558H7.755l-.372-1.861H7.238v-.744h.186a3.226,3.226,0,0,1,1.675-.558v.186h1.075a6.411,6.411,0,0,1,1.675-.372v.186h1.3a4.136,4.136,0,0,1,1.861-.186v.186l1.3.186c.083.858.186,1.882.186,2.978v2.068h.186l.186,2.068h.186v.558h.186l-.186,2.068-3.35-.558-3.371,1.055-.372-1.117-.372-.186v-.558H9.43l-.744-3.164H8.5v-.372Zm1.861,9.678v.186c-.807.217-1.034.92-1.675,1.3a2.451,2.451,0,0,1,1.716-1.489Zm8.231,37.783-.786-1.489-.186-1.117h-.186v-.372h-.145v-.558l-.372-.186v-.558l-.372-.186-.558-2.792-.372-.186v-.186l-.372-.186v-.372l-.558-.372v-.372h-.186l-.372-2.606-.931-.744v-.372l-.372-.186V154.3l-.372-.186v-.372l-.372-.186v-.372h-.186l-.186-.744-.558-.372V151.5c-.507-1.334.414-2.657,0-4.136a6.442,6.442,0,0,0-.744-2.068H9.616l-.558-.744H8.872c-.227-.352.052-.889-.186-1.3H8.5v-2.42a7.238,7.238,0,0,0,3.909-.186v-.186l.744-.186v-.186h.558V139.9h.765v-.186c.269,0-.072.186.186.186.414,0,.372-.186.372-.186h.931v-.124a9.5,9.5,0,0,0,1.489-.372l.186-.372h.372v-.186h.558v-.186h.372v-.186h.7V138.1l.931.186c-.269,1.034-1.665,1.768-2.606,2.233v.186h-.558v.186h-.352v.186l-.931.186v.186h-.744v.207h-.372v.186h-.744v.186l-.931.186v.186h-.372v.186h-.558l-.186.372H11.85v.186h-.372v.186h-.558c-.052,0-.176.279-.372.372v.186H10.34v.558h-.165c0,.972.072.724.372,1.3a3.7,3.7,0,0,0,2.792.372v-.186H13.9v-.186h.931v-.186l2.42-.186.186.372.931.186v.186h.372v.186l1.861.186v-.186h.186c-.527.807-1.293.641-2.068,1.117v.186l-.558.186-.186.372-.744.186-.931,1.117v.744H16.13v.558h-.186v.372l-.744.558v.372h-.186c-.31.858.858,2.316,1.117,2.792a18.357,18.357,0,0,1,1.861.744h.931v.186h.372v.186l.744.186v.186h.744v.186h.558v.186c.807.258,1.985,0,2.606.186l.558,3.164h.186l-.186.558.186,3.909h.186l.186,1.3h.186v.744h.186v.372h.186a2.647,2.647,0,0,1-.186,1.489,1.448,1.448,0,0,0-.744.372v.186c-.331.217-.424,0-.744.372C21.549,169.268,20.608,167.7,18.364,167.51Zm35.156-9.492h-.165v.372l-.372.186-.186.744-.372.186v.558h-.186v.372h-.186l-.352,1.117h-.207l-.186,1.489h-.186l.186,2.606a29.986,29.986,0,0,0,.744,7.631,5.6,5.6,0,0,1-.558,2.606V177h-.186l-.186,4.281h-.186v.931h-.186v.558h-.186v.372h-.186v.558h-.186v.744H50v.372h-.186v1.675h-.186v.558h-.186c-.269.827.176,1.282-.372,1.861V190.4c-.145.3-.869.517-1.117.744l-.744.931-.372.186v.372l-.372.186-.186.744c-.062.1-.248.155-.372.372l-2.792.558v.186l-2.068.186v.186l-2.606.186v.186l-1.117.186v.186l-.744.186v.186H34.743v-.186h-.558V195.8l-1.1-.372v-.186h-.744v-.186l-1.117-.372V194.5l-.744-.186-.372-.558h-.372l-.372-.558h-.414l-.186-.372-.931-.744v-.372h-.186l-.186-.745H27.3V190.4h-.186v-.372h-.227v-.744l-.372-.186-.186-.931H26.14V187.8h-.186v-.372h-.1v-.372h-.186v-.372h-.227v-.372H25.25l-.372-1.117-.372-.186-.186-.931-.372-.186v-.558h-.165v-.372h-.207l-.186-.931H23.2l-.186-1.075h-.186l-.931-4.136h-.186v-.372h-.186v-.558h-.186v-.372h-.186v-.372l-.372-.186-.186-.744-.372-.186v-.372h-.186l-.186-.744h-.207v-.931H19.46v-.558a2,2,0,0,1,1.3-.372v.186h.951v.186h.372l.744.931h1.117v.186h.931v.145l1.675-.186h2.068v-.186a4.57,4.57,0,0,0,1.861-.931c1.034.145.558.248.931.931H31.6v.372h.186v.372l.372.186v.558h.186v.744l.744,2.275,1.861,1.3h.558a14.713,14.713,0,0,1,1.117,1.675,10.062,10.062,0,0,1,1.675.372l2.068-.186c.321-.372.434-.155.744-.372v-.186l.744-.558c.114-.372,0-.155.186-.372v-1.117l-.372-.186v-.372h-.186a1.541,1.541,0,0,1-.372-.744H40.74c-.227-.755-.124-.2-.558-.558L40,174.955l-.6-.207-.186-.372h-.558v-.186h-.393l-.558-.558c-.259-.393-.176-1.034-.372-1.489h-.186v-.5h-.186l-.372-1.117H36.4v-.372H36.19v-.372H36v-.372l-.372-.186v-.372l-.372-.186V168.3h-.1v-.372l-.414-.414v-.372l-.558-.372L34,166.021h-.186l-.186-1.675-.372-.186c-.207-.341-.269-1.034-.558-1.3l-1.117-.186v-.186H31.02a1.716,1.716,0,0,0-.372-.372v-.931h-.186v-1.675l1.3.372.186.372h.558v.186h.372v.186c.569.165.744-.321,1.117-.372v.186h.372l.744.931H35.3v.372h.186l.372.558h.331l.372.558h.372l.186.372h.372l.186.372h.579v.186H39v.186H40.12v.186l.931.186.186.372h.372v.186c.569.238,1.034,0,1.489.372,1.158-.072,1.313-.682,2.068-1.117,0-2.223-1.437-3.174-2.792-4.136l-.186-.372-.744-.186-.186-.372-.744-.186-.372-.558c-.207-.2-1.034-.62-1.117-.744v-.372l-.372-.186V156.3h-.186l-.186-.931-.372-.186v-.372c-.2-.238-.672-.207-.931-.372l-.186-.372c-.589-.372-1.386-.393-1.861-.931a3.159,3.159,0,0,1-.372-2.233,16.824,16.824,0,0,0,4.653-.558h1.117v-.186h.558v-.186h.558v-.186h1.675c.259,0-.062-.114.186-.186h1.158v-.186h.744v-.186l1.117-.186V148.9H46.7v-.186h.558v-.186h.31v-.186H48.7v-.186h.558v-.186h.558v-.186h.558V147.6l2.42.186c.155.207,0,0,.186.186-.083,1.5-.372,2.771-.372,4.467v1.3H52.8l.372,2.233h.186v.372h.186v.744h.227Zm-.372-15.634v.186H50.356v.186H49.8v.186l-1.675.186v.186l-2.068.372v.186H45.5v.186h-.517v.186h-.744v.186l-.931.186v.145H42.188a7.062,7.062,0,0,1,1.3-1.3l.931-1.117C45.765,141,47,140.006,47.4,137.689a1.437,1.437,0,0,1-.372-.558,5.987,5.987,0,0,0-3.164.744H42.746l-.186-.372h-.372l-.372-.558h-.186V136.2h-.186v-.372h-.186v-.372l-.372-.186-.186-.744-.372-.1-.186-.745h-.186l-.372-.558-3.536-.372-.744.186v-.186h-.145v.186H34.97v-.186c-.62-.145-1.293.145-1.675-.186h-.414a9.223,9.223,0,0,1-1.117-2.42,2.616,2.616,0,0,0,.931-2.606h-.186c-.186-.465.2-.207-.186-.558l-.186-.372-1.117-.228v-.227h-.372v-.186l-.558-.186-.186-.558c.538-.2,1.52,0,2.233-.186v-.186l1.675-.186v-.186h.744v-.186l.744-.186v-.186h.558v-.186h.558v-.186h.558v-.186h.558v-.186l.724-.124v-.186a5.47,5.47,0,0,1,2.792.372h2.233v.186h.744v.186h1.117v.186H45.7v-.186h.186v.186h1.3v.186h1.861v.186l.744.186.558.744h.372l.186.372h.372l.372.558.931.186v.186l.744.186v.186h.744v.186h.558v.186l1.117.931v.372c.538.134.62.2.744.744h.372v.372a1.54,1.54,0,0,1,.744.372v.186h.372v.165l.744.186v.186h1.137v.186a10.4,10.4,0,0,0,3.722-.186l6.887.186.186.372,1.117.186v.186l.558.372v2.461a3.951,3.951,0,0,1,.558.558,2.451,2.451,0,0,0,1.3.186,4.26,4.26,0,0,1,1.489-.372v.186h.558v.186h.558v.186l.744.1v.186h.372l.186.372h.372l.186.372h.372l.186.372h.393l.186.372h.558v.186h.372v.207l.744.186v.186l1.861.372v.186l1.117.372v.186h.331v.186h.372v.186h.372v.207h.558v.186h.372v.186h.744v.186h.744v.186h.972v.186h.744v.186H90.6v.186h.558v.186l.744.186v.186h.372v.207l1.861.372v.186h.558v.186h1.468v.186l1.117-.186a24.32,24.32,0,0,0,4.136-.186c.61-.155.92.248,1.3.186v-.186l1.675-.186v.186h.558v.186h2.068v.186h.931v.186h.744v.186h.558l.186.372h.372v.186h.372l.372.558h.372l.186.372h.372l.372.558h.372l.186.372.744.186v.186a11.064,11.064,0,0,0,4.467.372v-.186h1.861v-.186h.455v-.186h1.3l1.861-1.117a3.505,3.505,0,0,0-.186-1.675h-.186a1.541,1.541,0,0,1-.372-.745c-1.034-.238-2.182-.734-3.35-.931.238-.734,0-.227.558-.558v-.186h.372l.372-.558h.558v-.207l.558-.372.186-1.861h-.186c-.238-.931-.248-.445-.931-.744v-.186h-.558v-.186h-.186c-.114-.372,0-.155-.186-.372,0-1.4-.207-3.392.186-4.467a1.789,1.789,0,0,1,.931.186v.186h.931v.186c.9.227,1.1-.713,2.068-.372v.186h.393l.186.372.744.186v.186l1.117.372v.186h.744v.186h.744v.186h.931v.186h1.675v.186c1.479.414,3.95-.29,4.839-.558h1.117v-.186l4.839.186v-.186h1.489v-.186h.744v-.186H144v-.186a7.527,7.527,0,0,1,2.606-.558c0,2.978.786,6.359,0,9.12v1.675h-.186v2.42h-.186v1.861h-.186v1.3h-.186v4.694h-.186V154.9h-.186v1.861H145.3v.744h-.186v.7h-.186v.744h-.166v.558h-.186v.558h-.186v.372c-.052.093-.259.155-.372.372a7.931,7.931,0,0,0-2.42.186l-.558,2.42-.558.372v.186l-.372.186v.372l-1.3,1.117v.372l-.744.558v.372l-.372.186v.372l-.558.372v.372l-.558.372V169l-.372.186v.393l-.372.186v.372l-.558.372-.186.558-1.117.931v.372l-.744.558v.372l-.372.186v.372l-.372.186v.372l-.372.186v.145l-1.117.372-.186.372-.931.186v.186l-3.536.186v-.186h-.744v-.186c-1.034-.3-2.275.165-3.164-.186v-.186l-.744-.186v-.186l-1.324-.186-.186-.372h-.558l-.186-.372-1.117-.372v-.186l-.558-.186-.186-.372-1.861-.372v-.186h-.372v-.186h-.372v-.186h-.372v-.186h-.372v-.124h-.372v-.186h-.372v-.186l-1.117-.372v-.186l-1.716-.414-.558-.744h-.372l-.372-.558h-.372l-.186-.372-.744-.558-.744-2.233H107.1l-.186-.744h-.186v-.558l-.372-.186-.186-.744-.558-.372-.186-.558-.744-.186-.186-.372-.744-.186v-.186h-.744v-.186h-.558v-.186h-.7v-.186h-.414V161h-.744v-.186l-2.358-.186v-.186H96.163l-2.606-.165v-.186H90.993V159.9h-.558l-.372-.558h-.414l-.558-.744-.372-.186v-.372h-.186l-.744-.931h-.372c-.248-.941-1.251-1.437-1.861-2.068l-1.117-1.3-1.117-.372-.186-.331h-.414l-.558-.744H81.79l-.186-.372h-.331l-.372-.558-.558-.186-.186-.372h-.372v-.186h-.372v-.186h-.558v-.186a2.068,2.068,0,0,0-.931-.558v-.372c-.61-.176-.869-.579-1.3-.931V148.2l-.744-.186-.186-.372h-.372l-.744-.931H74.2l-.186-.372h-.372v-.186l-.744-.186v-.186c-.558-.207-1.034.072-1.489-.186V145.4l-.558-.186-.372-.558-.931-.186v-.186h-.372V144.1H68.8v-.186h-.372v-.186l-.744-.186-.186-.372h-.372v-.186l-1.117-.186-.186-.372-2.42-.186v-.186H62.1a6.4,6.4,0,0,0-3.164-.186v.186c-1.261.331-1.851-1.034-2.792-.744v.186h-.372l-.186.372h-.372l-.186.372ZM71.967,279.742h-.186L71.595,279h-.186v-.558h-.186v-.372h-.186v-.558H70.85v-.393l-.372-.186-.186-.744h-.186l-.372-1.137h-.186V274.3h-.186l-.186-.745h-.186l-.186-1.117h-.186v-.372h-.186v-.558h-.186v-.558h-.186v-.558h-.186v-.931h-.186v-.558H67.5v-.558h-.186V267.6h-.186v-.745h-.186V266.3h-.186v-.931H66.57l-.558-2.606h-.186v-.558h-.186v-.558h-.186l-.372-2.068h-.186l-.186-.931h-.186v-.372h-.186l-.227-1.055h-.186v-.372h-.186v-.558h-.145l-.186-.744h-.186v-.372h-.145v-.558h-.186v-.372h-.227v-.558h-.186v-.352h-.186v-.372H62.1v-.372h-.186v-.372l-.372-.372v-.372l-.372-.186v-.558h-.165v-.372H60.8l-.372-1.158h-.186v-.558h-.186l-.372-1.117H59.5v-.393h-.186v-.372h-.186l-.186-.662h-.186v-.558l-.372-.186-.372-1.117-.372-.186-.186-.744-.372-.186-.186-.744h-.186l-.186-.744h-.186v-.558h-.186V240.7h-.186v-.558h-.186l-.186-1.117H55.4v-.558h-.186l-.186-.931H54.8l-.186-.744H54.43v-.372l-.372-.186-.186-.744L53.5,235.3v-.372l-.372-.186v-.372l-.372-.186-.744-.931-.744-.558c-1.778-2.637-1.034-7.952-2.068-11.374l-.186-2.42h-.186v-.372H48.7c-.5-.61-.372-.4-1.117-.744V217.6h-1.3v-.186a1.882,1.882,0,0,0-1.489,1.117h-.331l-.186,1.117h-.227v1.489h.186v3.536h.227v1.117h.186l.186,5.77,1.117,2.792c.217.4.869.982.558,1.861h-.186v.372h-.186v.372H45.91v.558h-.186v.931H45.5v.744H45.31v.558h-.186v.558h-.145v.558l-.372.186-.744.931c-.558.4-.9.352-1.117,1.117h-.352a2.068,2.068,0,0,1-.558.931H41.65v.372l-.372.186v.372l-.372.186c-.165.258-.134.734-.372.931h-.372l-.186.372H39.6v.186h-.558l-1.489,1.3v.372l-.558.372-.558,3.35v1.3H36.19v.372H36v.744h-.186v.558h-.145v2.233h-.186v1.675H35.3V261.9h-.145v1.675H34.97v1.137h-.227V266.2h-.186v1.3H34.37v1.861c-.62,2.068-.682,4.819-1.3,6.887l-.372,3.164h-.186v.745h-.186v.372l-.372.186v.538h-.186l-.186,2.42h.186v.558h.186l.186.558a2.7,2.7,0,0,0,2.233.186h.558l.186-.372h.372l.372-.372h.331v-.186c.548-.321.124.134.558-.372h.186v-.352h.186l.186-.744h.186l.372-1.861h.186v-.372h.207l.207-3.226h.186v-1.489h.186v-1.613h.186v-1.861h.186v-1.861H39.4v-.931h.186V267.81h.186v-.931h.186v-1.137h.186v-1.861h.186v-2.233h.186V257.78H40.7v-1.489h.186l.186-1.117h.186V254.8h.186v-.931h.186v-2.233h.186l.186-.931a6.4,6.4,0,0,0,1.861-.931V249.4l.372-.372.558-.186v-.372l.372-.186v-.372l.372-.186v-.372l.558-.372v-.372l.372-.186.744-.931.744-.186v-.186h.372v-.186H48.7v-.186l.744-.186v-.186l.372-.186c.269-.352-.186-.2.372-.558l.186-2.233h.372l1.117,3.164h.186l.186.744.372.186.186.745.372.186.186.558h.186l.186.744.372.186.186.744h.186l.186.745H54.8v.558h.186l.372,1.117h.186v.372h.186v.558h.186l.372,1.117h.186v.372h.186v.372h.207v.372h.186l.186.931.372.186v.372H57.8v.372h.186v.558l.372.186v.745h.186l.558,1.675h.186v.372h.186v.558h.186v.372h.186l.186,1.117h.186v.558h.186v.558h.186v.558h.186v.931h.227v.558h.186l.186,1.3h.186l.372,2.068h.186v.745h.186v.744H62.5v.745h.186v.744h.186l.186,1.3h.186v.558h.186v.558h.186v.558H63.8v.372h.186v.5h.124l.372,1.117h.186v.372h.186v.579h.186l.186.744h.186v.558H65.6v.372h.186v1.861h.186l.372,1.117h.186l.186.931H66.9l.186.745.372.186V284h.186l.186.931h.186l.372.558h1.489l.372-.558h.372v-.186h.744v-.186l.558-.186.186-.931h.269a4.87,4.87,0,0,0-.372-2.792ZM76.1,63.282v-.207h.372l.931-1.3V61.42h.145v-.414h.186v-.372h.186v-.662h.186v-.186h-.186c-.176-.693,0-1.1-.372-1.489a2.409,2.409,0,0,0-2.792-.558l-1.117.165-.372.558h-.558v.186h-.186v-.186h-.145v.186h-.744v.186H70.313l-.186-.372h-1.51a4.136,4.136,0,0,1-.931.744,5.853,5.853,0,0,0-.372,1.8H67.5l.186.931.558.372v.372l.744.558v.186h.372l.186.372c.341.217.424,0,.744.372a3.247,3.247,0,0,0,1.3-.186V63.8l3.888-.145c.217-.227.352-.2.579-.372Zm83.341,160.624h-.207v-1.117h-.186v-.372h-.186v-.558h-.186v-.579h-.186v-1.117h-.186v-.372h-.186l-.186-1.3h-.186l-.186-.744h-.186l-.186-.931H157l-.186-1.675h-.186v-.744h-.186v-.558h-.186v-.558h-.124v-.745h-.186v-1.117h-.186v-.558h-.186V210.3h-.186v-.931h-.186v-.5h-.186V208.5h-.186v-.558h-.186l-.186-.744h-.186l-.186-.931-.558-.372v-.372l-.372-.372v-.414h-.186v-.372h-.186v-.372H152.6l-.744-3.164h-.186l-.186-.744H151.3l-.186-.744-.372-.186-1.117-3.35v-.931h-.186l-.186-1.3c.879-.207,1.189-.755,2.068-.931l.186-.744.372-.186-.186-2.233H151.5v-1.489h-.186v-.558h-.186l-.372-1.117h-.186v-.372h-.186l-.186-1.117h-.269l-1.675-9.492V172.68l-.931-2.792a16.6,16.6,0,0,0-3.722,0l-.558,1.675.186,5.584h.186v1.489h.186v1.675h.186v.931h.186v1.3h.186v.931h.186v.931h.186l.228,1.717h.186v.744h.186v.558a7.786,7.786,0,0,1,.558,3.164,5.934,5.934,0,0,1-1.489-.372v-.186h-.372v-.186c-.9-.31-2.347.352-2.978-.186-1.841,0-1.2,1.158-2.233,1.861v.186l-1.3-.744-.186-.372-1.675-.331-.186-.372-.372-.186c-.424-.569-.279-.889-1.117-1.117V188.4h-1.324v.186h-.744v.186h-3.35v.186h-.744l-5.025.186v-.186h-1.675v-.186h-.744v-.186h-.558V188.4h-.7v-.207a7.683,7.683,0,0,0-2.792,0v.186l-.744.186v.186l-1.117.186-.186.372H113.7c-.259.2-.124.465-.558.744a8.169,8.169,0,0,0,.186,1.675,11.2,11.2,0,0,1,1.3.558l1.861.186v.186l1.117.372v.186h.372v.145h.558v.186h.558v.186h1.117v.186l7.073-.186a10.65,10.65,0,0,1,3.536-.186v.186h.372l.186.372.744.186v.186l.744.186v.186l1.675.186,1.675.558v.186h.372v.186l1.861-.186a4.86,4.86,0,0,0,.744-1.861l.931.186v.372l.931.186v.186h.372l.186.372h.372v.207h.372v.186h.558l.186.372.558.186v.372h.186l.186.744h.186l.186,1.3h.186v.372h.166v.6h.186l.186.744h.186v.29h.186l.186.558.372.186.186.744.372.186v.558h.207v.558h.186v.931h.186l.186.931h.186v.372h.186v.558h.1l.186.744h.186l.186.744.372.186v.372h.186l.186,1.117.372.186v.372h.186v.558h.207v.558h.186v.744h.186v.744h.186v.744h.186v1.3h.186v.372h.186l.186,1.675h.186v.558h.186v.744h.186l.186,1.489h.186v.372h.186v.558h.186l.186.745h.186V222h.186c.207.6,0,1.251.372,1.675,0,1.437.052.931-.745,1.489l-.186.372-.558.186-.744,1.489-2.068.558v.186l-.744.186v.186h-.558v.186h-.931v.186h-1.117v.186h-1.055v.186h-1.489l-2.606.372v.186h-.558v.186h-.372v.186l-1.675.186v.186h-.372l-.186.372h-.558v.186h-.558v.186h-.558v.186h-.558v.186h-.931v.186h-.372v.186h-.579v.186l-1.489.186v.186l-.744.186v.186l-.744.186-.186.372h-.372l-.186.372h-.414l-.186.372h-.372l-.186.372h-.558v.248h-.558v.186h-.558v.186h-.372v.186h-.744v.186h-.558v.186l-.744.186v.186h-.558v.186h-.372v.186l-1.675.558-.186.372-.744.186-.186.372h-.372l-.558.744h-.372l-.372.558-.744.186-.372.558-.744.186-.186.372h-.372l-.186.372h-.372l-.186.372h-.372l-.186.372h-.517l-.372.558-.744.186-.186.372-1.117.186-.186.372H111.8v.186h-.372l-.372.372h-.414l-.186.372h-.372l-.186.372h-.29l-.186.372h-.372l-.186.372-.558.186v.186l-.744.186-.372.558-1.675.372-.186.372-.744.186-2.42-7.073-.372-.186-.455-1.137h-.186v-.372h-.186l-.372-1.117H100.4v-.558h-.1l-.186-.744h-.227v-.372H99.7v-.558h-.186l-.372-1.117h-.186v-.372h-.186V233.4h-.186v-.558H98.4l-.186-.744h-.186v-.372h-.186v-.558h-.186l-.186-.744H97.28l-.186-1.117h-.186v-.372h-.186l-.372-1.861h-.186l-.372-1.117H95.6v-.372h-.186v-.372h-.186v-.372h-.186v-.558H94.86l-.186-.744h-.186v-.558H94.3V222.6l-.372-.186c-.569-.858-.8-1.7-1.675-2.233l.186-2.068h.186c.3-.972-.114-1.654.372-2.42l.372-.186v-.372l.744-.558.186-.744h.186c.352-.434.765-.693.931-1.3a2,2,0,0,0,.931-.558v-.186h.372l.186-.372.558-.186v-.186h.372l.372-.558h.372l.558-.744.558-.186.6-.683h.372l.186-.372h.372l.372-.558h.372l.186-.372h.372l.186-.558.558-.372v-.372h.124v-1.3h-.186a2.337,2.337,0,0,0-.186-.931,4.2,4.2,0,0,0-2.068-.186v.186h-.372v.186h-.29v.186h-.558l-.186.372h-.6v.186h-.372l-.186.372h-.372l-.558.744-.744.186-.744.931H95.6l-.372.558H94.86l-.372.558h-.393l-.372.558h-.352l-.372.558c-.5.352-.972.424-1.3.931l-.558-.186-.744-2.606h-.186l-.186-.744h-.186v-.372h-.186v-.558h-.186l-.372-.558-2.233-.227v.186c-1.2.331-1.106,1.861-.931,2.978V209.9h.186l.186,1.3h.186v.372h.186V212.7h.186v4.281h.186v1.3h.186V219.4h.186c.362,1.251-.227,2.864.372,3.909l.744.558v.186h.393l.931,1.117v.372l.372.186.744,2.606h.186v.372h.186l.186.931h.186v.372l.372.186v.558h.186l.186.745h.186l.186,1.117h.186v.372h.186l.186,1.117h.186v.372h.186v.558h.186l.372,1.117h.186v.372l.372.186.186.744h.186l.186.744h.186l.744,2.233.372.186v.372l.372.186v.372l.372.186.186.744.372.186.186.744h.186l.372,1.117h.186v.558h.186v.558h.186v.558h.186v.558h.186v.558h.186v.372h.186v.558h.207v.558h.186v.558h.186v.558h.186v.744h.186v.372h.186l.372,1.675h.186v.372h.186v.558h.186l.186.744h.186v.558h.186l.186.744h.186v.558h.186v.372h.124l.186,1.117h.186v.372h.186v.745h.186l.372,2.068h.186l.186,1.3h.186v.558h.186v.558h.207v.744h.186v.372h.186l.186,1.117h.186v.372h.186v.558h.186l.186.745h.186v.559h.186l.186.745h.207v.558h.186v.372h.186v.558h.186l.372,1.117h.186v.372h.186v.414h.186v.372h.186v.558h.186v.372h.207l.372,1.861h.186v.372h.186l.186,1.3h.1c.269.869-.3,2.182.186,2.792l.186.558c.817.062,1.355.341,1.861-.186.465-.134.3-.093.558-.372h.186v-.393l.558-.372.186-.744h.186a7.238,7.238,0,0,0-.186-3.536h-.186l-.186-1.3H113.8v-.745h-.186v-.538h-.186v-.558h-.186v-.558h-.186v-.372h-.186v-.579h-.165v-.372h-.186l-.186-.745h-.186V268.2h-.186v-.393h-.186v-.558h-.186l-.186-.744h-.186v-.372h-.186v-.558h-.186l-.186-.745h-.186v-.558h-.186V263.9H110.1l-.372-1.675h-.124v-.372h-.186v-.745h-.186v-.372h-.186l-.186-1.489h-.186v-.558h-.186v-.558H108.3v-.558h-.186l-.579-2.585h-.186v-.372h-.186v-.558h-.186V253.5h-.186l-.186-.931h-.186v-1.117h.186v-.186l1.3-.186v-.186h.558v-.186h.558l.186-.372,1.117-.372.372-.558.744-.186.372-.558h.372l.372-.372h.372l.186-.372.744-.186.186-.372.558-.186v-.186l1.117-.372.186-.372.931-.186.372-.558.931-.186.186-.372.744-.186.186-.372h.372v-.186h.31l.186-.372.558-.186v-.186l.744-.186.186-.372h.393V242.7h.372l.372-.558.744-.186.186-.372.744-.186v-.186l1.117-.372v-.186h.6v-.186h.372v-.186l1.117-.186v-.207l1.117-.186v-.186l.931-.186v-.186l.744-.186v-.186h.558v-.186h.331l.186-.372.931-.186.186-.372h.372v-.186l.744-.186V237.1h.558v-.186h.558v-.124h.372V236.6h.744v-.186h.931v-.186l.744-.186v-.186h.558v-.186h.352v-.186h.558V235.3h.372v-.186l1.117-.186v-.207h.744v-.186h.558v-.186l1.675.186v-.186l3.909-.186,2.42-.744.372-.558,1.117-.372.372-.558,1.117-.372.372-.558.744-.186.186-.372h.372v-.186h.372l.372-.558,1.117-.372.186-.372h.372l.372-.372h.372l.372-.558h.372l.186-.372h.186v-.558l.372-.186.186-1.117h.186ZM102.119,71.1v.186a4.426,4.426,0,0,0-.558,2.233c.3.341.176,1.23.186,1.861a2.916,2.916,0,0,0,.372,1.489V77.8l1.861,4.136.372.186v.372h.186a6.142,6.142,0,0,1,.372,2.233h-.186v1.1l.931,1.675.744.186v.207a5.553,5.553,0,0,0,3.164-.558c.6-.362.631-1.034,1.117-1.489a6.7,6.7,0,0,0-.372-2.606h-.186l-.186-.931h-.186v-.414h-.145l-.186-.744-.372-.186v-.372l-.558-.372v-.372l-.372-.186-.186-.744-.372-.186-.186-.744h-.186L107,77.241h-.186v-.558h-.186V76.31h-.186v-.558h-.186v-.744h-.186l-.372-1.117h-.227v-.372h-.186V72.96H105.1v-.579h-.186v-.372h-.186l-.372-.558-1.3-.186v-.186Z" transform="translate(-0.004)" fill="#231815" fill-rule="evenodd"/>
    </g>
  </g>
</svg>
