<svg xmlns="http://www.w3.org/2000/svg" width="242.277" height="168.713" viewBox="0 0 242.277 168.713">
  <g id="レイヤー_1" data-name="レイヤー 1" transform="translate(-0.001)">
    <path id="パス_374" data-name="パス 374" d="M202.32,84.916h1.308v-.187h.56v-.187h.56v-.187h.374v-.187l.934-.187.187-.374h.374v-.187h.56v-.187l1.121-.374v-.187h.374v-.187h.374V82.3h.374v-.187h.374v-.187h.374V81.74h.374l.374-.374h.374l.187-.374.747-.187.374-.56h.374l.747-.934.747-.56v-.374l.374-.187v-.353l.374-.187v-.374h.187V76.9h.187l.56-3.176h-.187v-.56h-.187a9.061,9.061,0,0,1,0-3.736l2.076.374v-.187h.56v-.187l.747-.187v-.187h.56a5.667,5.667,0,0,0,2.615-2.989c.55-1.661-.934-2.584-.374-3.736l2.989-5.044.187-1.308h.187V53.344a9.133,9.133,0,0,0-.187-5.189v-.747h-.187v-.374h-.187v-.56l-.56-.374v-.436l-.374-.187-.187-.747-.374-.187-.187-.56h-.187l-.187-.747-.374-.187-.228-1.287h-.187V41.2h-.187v-.374h-.187v-.56h-.187v-.56l-.374-.187v-.374h-.187v-.56h-.187l-.374-1.121h-.208v-.374h-.187v-.374h-.187v-.394h-.187l-.374-1.121h-.1l-.187-.56-.374-.187v-.56h-.187v-.374h-.187v-.56l-.374-.187-1.308-2.989L216,29.6v-.374h-.187v-.56h-.187V28.29h-.187v-.374h-.187l-.415-1.1h-.187v-.56h-.187v-.374h-.187l-.187-.56a2.688,2.688,0,0,1-1.681-1.121h-.187v-.332l-.747-.56v-.56h-.187v-.374H211.1v-.581h-.187V21.42h-.228l-.187-.747h-.187l-.56-1.868-.374-.187v-.374h-.187L209,17.31l-.374-.187v-.374h-.187v-.374h-.187v-.394l-.374-.374v-.374l-.311-.187-.187-.747H207.2l-.187-.56-.374-.187v-.374l-.747-.56v-.374l-1.308-1.121v-.374l-1.515-1.308-.56-.747h-.374l-.374-.56h-.415l-.374-.56H200.6l-.291-.56-.56-.187-.187-.374-1.121-.374-.208-.374h-.56l-.187-.374-.768-.145-.187-.374h-.374V4.586h-.374V4.4h-.56l-.187-.374h-.374l-.374-.374h-.374V3.465h-.374V3.278h-.374V3.112h-.374l-.187-.374-.934-.187V2.344l-.706-.187V1.97h-.56V1.784h-.56V1.6h-.374V1.41h-.581V1.223h-.374V1.036L187.375.849V.663h-1.121V.476h-1.681V.289H182.5V.1a13.492,13.492,0,0,0-4.67.374h-1.681V.663l-1.868.187v.187h-.955v.187h-1.038V1.41h-.56V1.6h-.747a6.622,6.622,0,0,0-2.47,1.515,3.518,3.518,0,0,1-1.495-.374V2.531h-1.121V2.344a11.416,11.416,0,0,0-3.736.187l-.187.374h-.374l-.56.747h-.374a3.4,3.4,0,0,0-1.121,1.121h-.374c-.145.509,0,.426-.56.56v.374h-.187a4.411,4.411,0,0,1-.747.934v.187c-.2.093-.664-.685-.747-.747h-.374l-.56-.747h-.56V5.188l-1.121-.374V4.586h-1.121V4.4h-1.868V4.212l-2.429.187v.187h-.374v.187h-.56v.187h-.374l-.187.374h-.374l-.187.374h-.56v.187H145.9V6.08h-.374l-.374.374h-.374l-.374.56h-.374l-1.308,1.495-.56.374v.374l-.374.187-.187.747-.56.374-.187.747-.374.187-.187.56h-.187v.56l-.374.187v.56h-.187v.374h-.187v.56h-.187v.56h-.187v.56H138.8l-.187,1.121h-.187l-.187.747h-.208l-.187,1.308h-.187v.56h-.187v.374h-.187v.56H137.1l-.187,1.495h-.187v.56h-.187v.747h-.187v.747h-.187l-.208,1.681h-.187v1.121h-.187v1.121H135.4v.747h-.187V31.3c0,.1-.259,0-.374.56h-.747c.062-.415,0-.488.187-.747h.187V30.74h.187a5.791,5.791,0,0,0,0-2.242c-.374-.114-.156,0-.374-.187h-.187L133.9,27.19h-.187v-.56h-.187v-.56l-.374-.187v-.374h-.187v-.374l-1.121-.934-1.868-2.076h-.374l-.374-.56h-.374l-.187-.374H128.3l-.187-.374-.747-.187-.187-.374-.56-.187v-.187l-.747-.187V19.51h-.291v-.187h-.374v-.187h-.56V18.95h-.56v-.166a4.556,4.556,0,0,0-2.429-.374V18.6H120.35v.187h-1l-.187.374h-.374v.187h-1.308v.187h-.208v-.187l-4.255.374V19.9l-1.308.187-.187.374h-.374l-.187.374h-.374l-.187.374-.747.187-1.495,1.681-2.429,2.076-1.121,1.308-1.681.187-1.308.934v.374l-.56.374v.374l-.374.187a5.449,5.449,0,0,0-.747,3.736h.187v.581h.187V33.4h-.187v.747l-.374.187v.56h-.187v.374h-.187v.56H99.2l-.187.747h-.187v.374l-.374.187-.187.747-.374.187-.187.747h-.145v.374h-.187v.374h-.228v.374l-.374.374v.374l-.374.187-.187.747-.374.187-.353,1.079-.374.187v.374l-.374.374v.374h-.187v.374h-.208l-.187.56-.374.187v.56h-.187v.374h-.187v.374H93.22l-.187.56-.374.187-.187.747L92.1,48.3l-.934,2.8v2.242h-.187v.374l-.56.374-.187.747-.374.187-.374,1.121h-.228l-.374.56h-.374A2.7,2.7,0,0,1,87.2,58.2v.187h-.187a16.336,16.336,0,0,0-.56-4.3l-.145-2.2c-.477-1.536-.8-3.529-1.308-5.044V46.1h-.187V44.751h-.187v-.934H84.44V43.07h-.187V41.949h-.187l-.187-1.681h-.187l-.187-1.308h-.187V38.4h-.187v-.56h-.187l-.187-.747h-.187v-.374h-.187L82.2,35.6h-.208l-.374-1.121H81.43V34.1h-.166v-.56h-.187l-.187-.934-.374-.187v-.56H80.33v-.374h-.187l-.228-.747h-.187v-.374h-.187v-.374H79.4v-.374h-.187v-.374h-.187v-.374h-.145V28.5H78.69v-.374l-.374-.374v-.374l-.374-.187-.187-.56-.747-.56V25.7l-.747-.56c-.654-.675-.5-1.038-1.495-1.495v-.374a1.546,1.546,0,0,1-.747-.374v-.187l-.56-.187-.187-.374h-.415l-.208-.353h-.374l-.187-.374h-.56v-.187h-.374v-.187a9.341,9.341,0,0,0-4.857,0H64.223l-2.615.56v.187h-.374l-.187.374h-.332l-.56.747h-.374l-.56.747h-.374l-.187.374-.747.56v.311l-.374.187-.187.56h-.187l-.56,1.681h-.187v.374h-.187l-.187.934h-.187l-.187,1.308h-.187L55.3,30.7H55.11v.436l-.374.187v1.121H54.55l-.187.747h-.187l-.56,2.076h-.187v.747h-.187v.747h-.187V39h-.187v1.121h-.187v.747h-.187l-.187,1.266h-.187v.56h-.228v.747h-.187v.747h-.187L51.332,45.5h-.187l-.187,1.868h-.1l-.187,6.912H50.44v3.176a24.909,24.909,0,0,0-.56,6.725v2.8h.187V69.41c1.1,3.176,1.256,7.39,1.827,11.022.228,1.36.052,2.906.374,4.151V85.7H52.08v.374l-.56.187-.187.374h-.374l-.1.332H50.44v.208h-.374l-.187.374h-.56l-.187.374h-.353l-.374.374h-.374v.187h-.394v.187h-.374v.187l-1.121.394v.187l-.934.187v.187L44.462,90v.187H43.9v.1h-.374v.187h-.374l-.374.56-1.121.374-.187.374H41.1v.187h-.56l-.187.374-1.121.374-.187.374-2.989.934-.187.374h-.374l-.187.374h-.374l-.374.56h-.374L34,95.71l-1.121.934-.56.934h-.374L31.011,98.7h-.374l-.56.747H29.7l-.374.56h-.374l-.747.934h-.374l-.56.747H26.9v.187l-.56.374v.374l-.934.747v.415l-.934.747v.374l-1.121.934v.374l-.374.187v.187h-.145l-.374.56h-.374v.187h-.374l-.56.747h-.394v.187h-.374l-.374.374h-.394l-.374.56-1.495,1.308v.374l-.374.187-.187.56H17l-.187.747-.747.56-.187.747h-.187l-.187.56-.374.187v.374l-.6.394v.374l-.56.374v.374l-.747.56v.394l-.934.747v.291h-.145v.374h-.187v.56h-.187l-.187.747h-.166v.934h-.208l-.187.56-1.681.415-.187.374H8.78v.187l-.56.187a15.535,15.535,0,0,1-.56,1.495v1.121H7.473l-.187,2.076H7.1l-.187.747H6.725v.374l-.56.374v.374l-.374.187v.332l-.56.374v.374l-.56.374-.187.747-.332.208-.374,1.121-.374.187v.374l-.374.374v.374L.955,136.1c-.322.457-.28.81-.747,1.121v.747H0l.187,2.615c.384.322.446.7.747,1.121l.56.374v.374l.374.187v.374l1.121.934v.374h.187v.374l.374.187.187.747.374.187v.374l.374.187v.374l.374.187v.374l.374.187L5.6,148.62l.56.374,1.1,1.308h.374l1.7,1.868h.374l2.076,2.242h.374l.187.374h.374l.187.374.934.187.187.374h.374l.374.374h.374v.187l.747.187,2.242,2.615.747.187.747.934h.374l.187.374.747.187,1.308,1.495h.374l.187.374H23l.374.56h.374l.374.374h.374v.187h.374l.56.747H25.8l.374.374h.374v.145h.374l.374.56.747.187.374.56h.374v.187c.415.259.259-.073.56.374h1.121V166.7h.374v-.187l1.121-.187v-.187l.374-.187v-.374h.187c-.083-.778-.342-.82-.56-1.308v-.56h-.208v-.374h-.187v-.374l-.374-.187-1.1-1.266h-.374l-.56-.747H28.79l-.374-.56h-.394l-.374-.56h-.374l-.56-.747h-.374l-.934-1.121h-.374l-.374-.56h-.374l-.187-.374h-.374v-.187l-.934-.187-2.8-3.176h-.374V153.1h-.374l-.187-.374-.747-.187v-.187h-.56v-.187h-.374v-.187H17l-.187-.374H16.44l-.374-.56h-.374l-.56-.747-.56-.187-1.079-1.308h-.415l-.374-.56H12.33l-.187-.374-1.308-1.121v-.415l-.747-.56V145.4l-.374-.1-.187-.747-.56-.374V143.8l-.374-.187v-.394l-.374-.187-.187-.56H7.846l-.187-.747-.56-.374v-.374l-.374-.187v-.374l-.374-.187c-.218-.228-.311-.54-.56-.747a2.74,2.74,0,0,1,.934-2.076l.374-.187v-.374l.374-.187v-.374l.374-.374v-.374h.187v-.374l.374-.187v-.374l.56-.374v-.353l.374-.208V133.3l.56-.374v-.374l.56-.374v-.374l.56-.374v-.374l.374-.187V130.5h.187v-.374h.187v-.747h.187V129h.187l.187-1.868h.187v-1.121l.56-1.681.374-.187v-.374h.187v-.56l.56-.374,1.868-2.076h.374l.56-.747.374-.187v-.374l.747-.56v-.374l.934-.747V117.4l.374-.187.187-.56H19.8v-.374l.56-.374.187-.56.374-.187v-.374h.187l.187-.56.374-.187v-.374l.56-.374v-.166H22.6l.56-.747.747-.187.187-.374.747-.187.187-.374.747-.187.187-.374h.374l.934-1.121c.446-.436.934-.581,1.121-1.308h.374c.2-.778.82-1.038,1.308-1.495l1.308-1.495h.374l.187-.374h.228l.747-.934h.291l.187-.374h.374l.187-.374h.187l.187-.374h.374l.56-.747h.374l.56-.747h.374l.187-.374.934-.747v-.374l.374-.374h.374l.747-.934h.374v-.187l1.121-.374v-.187h.56v-.187l.747-.187v-.187h.374v-.187h.56v-.187l1.162-.353v-.208l.747-.187.187-.374,1.121-.374L46.33,95l1.495-.374v-.187H48.2l.187-.374h.394v-.187h.747V93.7H49.9V93.51l1.121-.374v-.187h.374l.187-.374,1.868-.56L54.2,94.63h.187V95h.187v.374h.187l.187.747.374.187.187.747h.187l.187.56.374.187v.374l.934.747V99.3l1.868,1.681.56.747.747.187.374.374v.374h.187c0,1.038-.363,2.864-.934,3.176s-.944,0-1.308.187v.187l-.374.187v.374l-.374.187v.56h-.187a7.877,7.877,0,0,0,.747,2.615V112a6.31,6.31,0,0,1,.374,1.681,4.276,4.276,0,0,0-1.495.56l-1.121.187-.187.374h-.374v.187l-.56.374v.374h-.187v.374l-.374.187-.187.56h-.208l-.187.934H53.8v.374h-.187l-.56,3.176h.187l.187.934.374.187v.374l.374.374h.374l.374.56h.56l.187.374h.374v.187h.374v.208h.56v.187h.56v.187h.374l1.121,1.868A5.636,5.636,0,0,1,58.1,129.4l-.187.187h-.934v.145H56.6v.187h-.747v.187H55.3c-.457.208-.727.612-1.308.747a1.972,1.972,0,0,1-.56.934h-.187l-.187.747-.374.187v.374h-.187v1.868h-.187l-.374.56h-.374v.187h-.374l-.187.374h-.374l-.187.374h-.374l-.187.374h-.374l-.374.56h-.353l-.56.747h-.374l-1.495,1.681h-.374l-.56.747h-.374l-.56.747h-.374v.187h-.374v.187h-.56l-.56.747-2.615.56c-.56.259-.872.965-1.308,1.308v.934c1.2,1.038,1.214,2.418,3.549,2.429h1.121v-.187h.374l.747-.934c.446-.3.882-.208,1.495-.374.062,0,0-.239.374-.187v.187H47.1v.166h.56v.187l1.495.187v.187l2.8.56c0,.851-.643,2.076-.374,2.8h.187v.374l.747.56L52.7,154h.187v.374l.934.747.187.747.374.187.187.56h.187l.56,1.681H55.5v.374l.374.187v.374h.166v.374l1.308,1.121.56.747h.374l.187.374h.374v.187h.56l.187.374h.6v.187a3.435,3.435,0,0,0,2.076-.187c1.256.156.851.82,1.308,1.681h.187v.374h.187v.374h.187l.374,1.121H64.7l.187,1.681.374.187v.374h.125l.374.56h.747v-.187h1.868l1.162-1.266.187-.934h.187a7.971,7.971,0,0,0-1.308-3.923h-.187v-.374h-.228v-.56H68l-.187-1.121h-.187l-.187-.747h-.187v-.56h-.187v-.374h-.187v-.374h-.187l-.374-.581h-.374v-.187c-.55-.27-.353.2-.747-.374H63.7v.187h-.394l-.187.374-.56.187-1.121-.934v-.374l-.374-.187-.374-1.121h-.187v-.374H60.32l-.374-1.121h-.166l-.187-.934-.374-.187v-.374l-.374-.187v-.374l-.747-.56v-1.121h-.187v-1.308h-.187v-.374h-.187l.187-1.121h.187V145.05a5.3,5.3,0,0,0,.374-1.495c.457-.166,1.443,0,2.076-.187v-.145h.374v-.187l.56-.374c.125-.592.737-2.148.374-3.176h-.187v-.415h-.249V138.7h-.187l-.519-1.7-.374-.187v-.374l-.374-.187v-.291l-.374-.187c-.218-.332,0-.426-.374-.747v-.374c.332.176.291.27.747.374a1.5,1.5,0,0,0,.374.747h.187l.374,1.121H60.9l.187.374c.353.28.2-.187.56.374a4.338,4.338,0,0,0,1.868,0v-.187l1.121.187v-.187h.374l.934-1.308a6.414,6.414,0,0,0-.934-3.736l-.374-.187c-.291-.477-.093-.882-.56-1.308l.187-.934.374-.187.374-1.121H65.2c.332-.913-.509-3.114-.56-4.151h.187c.176.768.509.8.747,1.308v.56h.187l.374,1.121h.187v.374h.187l.56.747.747.187V129a7.11,7.11,0,0,0,2.8-.187h.374l.187-.56.56-.374.374-1.121H72.3v-.56h.187v-1.308h.166v-2.429h-.187v-.747h-.187v-.374h-.187v-.374h-.166V120.6h-.187v-.56H71.55v-.374h-.187l-.374-1.121H70.8v-.56h-.228l-.187-.747H70.2v-.56h-.145l-.519-1.681c-.218-.488-.477-.519-.56-1.308h.56a8.988,8.988,0,0,0,3.549,2.8h.934v.187h.56v.187h.374l.934,1.121.374.187v.374l.56.374v.374l.56.187.934,1.121h.374l.374.56h.374l2.242,2.615h.311l.374.56h.374l.374.56h.374l.187.374h.394v.187h.374l.374.374h.374v.187l.747.56v.374l.934.747v.374l1.349,1.121.187.374h.374l.187.374h.291l.187.374h.374l.187.374h.374v.187l1.681.187v.187h.374l.374.56h.374v.187l.56.374v.374c-.6.166-.664.477-1.121.747l-.374,1.495c.218.176.208.436.374.56h.374v.187l.56.374.187.747.374.187.187.934h.187l.187.747h.187v.56h.187v.374h.187l.187.747h.187v.56h.187v.374h.187v.56h.187v.374h.187v.56h.187v.394h.187v.56h.187v.374H97.1v.747h.187v.56h.27v4.484a.3.3,0,0,1,.187.374h-.187v1.495a3.111,3.111,0,0,0-.187,2.076l.374.187v.374l.56.374v.374l.374.187v.291l.374.187.56.747h.374l.187.374h.374l.187.374h.187l.187,1.868h.187v.374l.374.187v.374l.374.187v.187l2.076.747v.187l.374.187v.374l.934.747v.187h.56v.187h.374v.187h.934l.187.374h.374v.27c.28.259.249.093.374.56a1.546,1.546,0,0,1,.747.374v.1h.374l.187.374h.187l.187.374.747.187v.187h.747v.187c.5.187,1.131.062,1.495.374a3.6,3.6,0,0,0,2.076-.374v-.187l.56-.374.187-.747h.187c.27-.789-.259-1.495-.374-2.076h-.374l-.747-.934h-.374l-.374-.56-1.578-1.245v-.374l-.934-.747-.187-.374h-.374l-.374-.56-.56-.187-.934-1.121-.374-.187v-.374l-.747-.56v-.374h-.187l-.374-.56-.56-.187-.747-.934h-.374c-.778-.55-2.356-1.972-2.615-2.989-.342-.4,0-.944,0-1.681l-.187-4.151-1.308-4.484h-.187v-.374h-.187v-.56h-.208v-.353h-.187v-.56H100.3v-.374h-.187v-.56h-.166V137.2h-.187v-.56h-.187l-.187-.747H99.2v-.56h-.187c-.1-.239-.1-.519-.187-.747.5-.187,1.951.052,2.429-.187v-.187l.56-.374v-.374H102c.259-.27.093-.249.56-.374.4-.353,3.114-.228,3.923-.187a4.225,4.225,0,0,1,1.495.374v.187h.56l.187.374h.374v.187l4.857.187v-.187h1.681v-.145h1.495V133.7H119v-.187h1.681v-.187h1.681v-.187H123.5a22.064,22.064,0,0,1,5.044-.187h1.868v.187h1.121v.187a13.834,13.834,0,0,0,4.484-.187l2.429.187h.187v-.187h4.151v-.187l1.681.56v.187a9.05,9.05,0,0,0,3.176-.187l.187-.56h.187l.187-.56.374-.187v-.394l.374-.187.5-1.889h.187l.187-1.681h-.187c-.114-.446-.2-.4-.374-.747a8.8,8.8,0,0,0-3.549.187l-.747,1.495a14.074,14.074,0,0,1-6.352-.187l-5.6.187V128.8l-2.989-.374v-.187h-.934v.187H128.9v-.187h-2.076v-.187H124.75v.187h-3.321v.187h-1.121v.187h-.747v.187l-7.265.374v-.187l-1.121-.374v-.187H110.8v-.187h-.56v-.187l-2.429-.187a14.427,14.427,0,0,0-3.549,0l-2.636-.208c-1.37,0-2.927-.156-3.549.56a1.339,1.339,0,0,1-.934-.374v-.187H96.77l-.187-.374-.747-.187v-.187h-.747l-.187-.374h-.374v-.187l-1.121-.145-.187-.374-.747-.56c-.384-.529-.291-.747-.934-1.121v-.374a3.746,3.746,0,0,1-1.495-1.121l-.187-.374h-.374l-.374-.56h-.374v-.187l-.934-.187v-.187a1.5,1.5,0,0,0-.747-.374v-.394c-.467-.125-.3-.093-.56-.374h-.187v-.374l-1.495-1.328v-.374c-2.294-.612-3.114-3.57-5.044-4.67V112.9l-.747-.187v-.187l-1.121-.187v-.187h-.374v-.187l-1.868-.374a1.038,1.038,0,0,0-.934-.934,4.784,4.784,0,0,0-.374-1.495h-.187V108.04h-.187l.187-1.868,1.121.187v.187a2.429,2.429,0,0,0,1.308-.187h.934v-.187H77.9l.187-.374h.374v-.187h.415l.374-.374h.374l.374-.56h.374l.747-.934.747-.187.187-.374h.374l.934-1.121h.374l.332-.353.187-.56h.56l.187-.374h.374l.187-.374h.374l.374-.56,1.308-1.121L88.55,97.6l.56-.374v-.374h.145l.374-.56H90l.747-.934h.374l.374-.56h.374l1.121-1.308h.415l.187-.374,1.495-1.308v-.374c.675-.176,1.038-.727,1.495-1.121v-.187c.633-.446,1.038-.394,1.495-1.121a5.916,5.916,0,0,1,2.429,1.681c1.328,0,1.443-.488,2.242-.934l.187-.934h.187v-1.1h.187V86.411h.187V85.29a7,7,0,0,1-.374-2.076c.394-.311.446-.7.747-1.121l.747-.56v-.374l.56-.374v-.353l.934-.747v-.374L107.6,78l.374-.56h.374l.56-.747,1.495-1.308.187-.934.374-.187.56-2.076a6.611,6.611,0,0,0,1.308-.56h.56l.187-.374.747-.187.187-.374h.374l.187-.374h.374l.187-.374,1.64-1.453v-.374h.374l.187-.56h.187v-.374L118.4,67v-.374l.56-.374.187-.747.374-.187.187-.747.374-.187.187-.747.374-.187.187-.747.374-.187.187-.747.374-.187v-.353h.187l.187-.747.374-.187v-.415l.374-.187v-.374l.374-.187v-.374l.374-.187.187-.56H124l.187-.747.56-.374.187-.56h.187V55.96l.934-.747v-.374h.187l.374-.56.56-.374.187-.747.56-.374V52.41l.374-.187.187-.747.374-.187v-.374h.187v-.374l.56-.374v-.353l.56-.374v-.374h.187c.394-.467.944-.82,1.121-1.495h.374c.28-1.038,1.37-1.391,1.868-2.242h.374c.062.633.5.944.374,1.495h-.187l-.187,1.308h.187v.56h.187v.374h.187l.187,2.615-1.121,3.736h-.187l-.374,1.121h-.187v.374h-.125v.56l-.374.187v.374h-.187v.374H132.1v.56h-.187v.374h-.187v.56h-.187l-.187.747h-.187v.374h-.187l-.187.934H130.6v.56h-.187l-.187.934h-.187v1.308l.374.187v.374h.187l.56.747c.519.374.737.218.934.934.394.457.187,2.013.187,2.8l-.394,8.033c.54,1.951.56,4.587,1.121,6.539v1.308l1.868,7.1h.187v.374h.187l.374,1.681h.187l.187.747h.187v.374h.187l.374,1.681h.187v.374h.187V98.6l1.868,2.429h.374l.187.56h.187l.374.56h.374l.374.56h.374l.187.374.747.187.187.374,1.121.374v.187h.374v.187l1.121.374v.187h.747v.187h.56v.187h.747v.187h.353v.187h.56v.166h1.515v.187h1.121v.187h.747v.187h.56v.187h.56v.187l.747.187v.187h.56v.187h.374c-.426.384-1.214,0-1.868.187v.187h-.56v.208h-.374v.187l-1.308.187v.187l-.934.747a7.8,7.8,0,0,0,.934,2.989l.187,1.681h.187v.747h.187v.747h.187v.934h.187v.747h.187l.187,1.681h.208v1.121c.394,1.328.54,3.114.934,4.484V126.8h.187v3.176h.187v.374h.187a2.076,2.076,0,0,1,.56.934l.56.187v.187h.5v.145h.747v.187l2.242-.187a4.151,4.151,0,0,1,1.121-.747l.187-.934h.187a10.689,10.689,0,0,0-.56-2.615l-.187-5.044c-.27-.934-.467-2.242-.747-3.176v-1.121h-.187v-.747h-.187v-.747h-.187l-.187-1.681h-.166v-.747h-.187V113.5h-.187v-.747h-.187v-.934c-.457-1.484-.519-3.332-1.681-4.151v-.187c4.151,0,9.652.83,11.209-1.868a11.417,11.417,0,0,1,2.989.934l1.868.187v.187l1.868.374v.187h.56v.187h.56v.27h.56v.187h.56v.187h1.121v.187h2.615v-.187h1.495v-.187h1.308v-.187h1.121v-.187h.747v-.187h.747v-.187h.56v-.187h.747V107h.374l.187-.374h.56v-.187h.374v-.187h.374l.187-.374h.374l.187-.374h.374l2.076-1.868v-.374l.56-.187.187-.56.934-.747V101.4l.934-.747v-.374l.374-.187.187-.56h.187v-.415l.374-.187V98.6l.56-.374.56-1.681.374-.187.374-1.121.374-.187a9.86,9.86,0,0,0,.374-2.989h-.187V90.894h.187l.56-1.64.374-.187.187-.747,1.121-.934v-.415h.187l.56-.747.56-.187.187-.374,2.076-.56ZM52.682,142.455h-.187v.187A5.251,5.251,0,0,1,51,142.268c.239-.82,1.173-.913,1.681-1.495h.187Zm7.473-22.418c-.374-.114-.156,0-.374-.187-.509-.145-.426,0-.56-.56h.56c.125.446,0,.353.374.56Zm56.418-90.418h1.681v.187a5.314,5.314,0,0,1,1.495,2.429h.187v1.495a11.583,11.583,0,0,0-2.615,0l-1.079-3.923c.332-.114.114.031.332-.187Zm-2.8-4.857v-.187l.56.187.187.934c-.374.114-.156,0-.374.187h-1.681a2.169,2.169,0,0,1,1.308-1.121ZM67.814,106.587H66.693V106.4c-.509-.145-.426,0-.56-.56h.374v-.747h.187v-.187l1.121.934Zm6.165-13.637-.374.187-.187.747-.56.374v.374l-.374.187v.374l-.374.187-.187.56h-.187v.374l-.374.187v.374l-.56.374v.187l-.374.187v.374l-.374.187a2.885,2.885,0,0,0-.934,2.242,3.6,3.6,0,0,1-2.076-.374l-.374-.56h-.353l-.374-.56h-.374l-.374-.56h-.374l-.187-.374h-.374l-.56-.747-.56-.187-.374-.374v-.374l-.56-.374v-.374l-.374-.187V95l-.934-.747v-.374l-.374-.187-.187-.747H60.2l-.187-.747h-.228l-.187-1.121h-.187v-.374H59.22l-.187-1.121h-.187v-.934H58.66V87.531h-.187V86.411h-.187l-.374-5.978h-.187V78.938h-.187V77.07h-.187V75.949h-.187V74.641h-.187l-.187-1.681H56.6v-.934h-.187v-.56h-.187V70.158h-.187V69.037h-.187V67.729h-.187V64.553h-.187l.187-.56-.187-.374h.187c.332-1.609-.187-3.684.187-5.044l.187-5.978h.187V50.355h.187V48.861H56.6V47.366c.457-1.546.83-3.352,1.308-4.857l1.308-6.539h.187v-.56h.187l.187-.934h.187V34.1H60.2v-.56h.187V33.21h.187l.187-1.121h.187v-.374h.187l.1-1.162h.187v-.374h.187l.228-1.121h.187V28.5h.187a2,2,0,0,0,.56-.934h.374V27.19a3.249,3.249,0,0,0,1.308-.934v-.187h.374l.374-.56h.374v-.187l1.121-.187v-.228h1.495l.187.374h.374l.374.56h.415l.187.374,1.308,1.121v.374l.934.747v.374l.56.374v.374l.374.187v.374l.374.374v.374h.187v.374h.187v.374h.187v.374h.187l.332,1.2h.187l.187.934h.187v.374H75.1v.56h.187v.374h.187v.56h.187v.311h.187l.187.747h.187v.56h.187V38h.187l1.495,4.3.934,6.725h.187v.789c.3.882.633,2.076.934,2.989L80.33,54.3h.187v1.681H80.7v1.308h.187a5.075,5.075,0,0,1,0,2.242l.187,10.088c-.488,1.661-.82,3.6-1.308,5.189l-.187,2.242H79.4l-.374,2.429h-.145l-.228,1.474h-.187l-.187,1.308h-.187v.56H77.9v.56h-.187v.56h-.187v.56h-.187v.6h-.187L76.8,86.784h-.208l-.374,1.681h-.187v.374h-.187v.56H75.66l-.374,1.121H75.1v.374h-.187l-.187.747-.374.187Zm19.055-6.912-.374.187a3.248,3.248,0,0,0-.934,1.308h-.394v.374h-.374l-.747.934-2.242,2.076-.374.56h-.374l-1.079,1.287h-.374l-1.308,1.495-.747.56v.374l-1.723,1.495-.56.747h-.374l-.374.56-.56.187-.208.415h-.374l-.187.374h-.374l-.747.934H77.86l-.187.374-1.868,1.681-.374.56h-.374v.187H74.31c-.114-.374,0-.156-.187-.374.166-1.038.28-.488.934-.934l.56-.747h.374l.187-.56.747-.56v-.415l.747-.56V98.18l.56-.374v-.374l.374-.187v-.374l.374-.187.374-1.121.374-.187.187-.747.415-.187.374-1.121h.187l.374-1.121h.187l.187-.934h.187v-.374h.166v-.747h.187v-.374h.187l.374-1.868h.187v-.374h.187l.187-1.121h.187l.187-1.495h.187v-.56h.208v-.374h.187l.187-1.308h.187v-.56h.187L85,80.619h.187l.187-1.868a14.292,14.292,0,0,0,.934-3.923h.374l.187.56h.187v.374l.374.187v.374l.56.374.374,1.142.56.374v.374l.374.187v.374l.374.187,1.308,2.989.56.374v.332l.374.374v.374H92.1c.353.664.384,1.2.934,1.681Zm31.385-37.923-.374.187-.187.747h-.187l-.187.56-.374.187v.374l-.374.187v.374l-.56.374v.374l-.374.187v.374l-.56.374v.374l-.56.374v.374l-.56.374v.374l-.374.187-.187.747-.374.187-.187.747h-.187l-.187.56-.374.187-.187.747-.374.187-.187.56h-.228l-.374,1.121h-.187l-.187.56-.374.187L115.97,61l-.374.187-.187.747-.374.187V62.5l-.374.187v.374h-.187v.374l-.374.187v.374h-.187l-.56.747h-.56v.187h-.374v.187h-.934V65.3h-.56v.187l-.747.187v.187l-1.121.187v.187l-.747.187v.187h-.56V66.8l-.747.187v.187h-.374l-.187.374-1.121.374c-.5.27-.944.685-1.495.934-.083.4-.114.529-.374.747,0,1.318.083,1.225.934,1.681v.187h.56v.145h.56V71.8h.187v.374h-.187c-.332.394-.374.114-.56.747h-.374l-.187.56-1.121.934-.187.56-2.408,2.283-.934,1.121h-.374l-.187.374-1.121.934a3.757,3.757,0,0,1-1.681-.747H96v-.187h-.374v-.187h-.56l-.54-.727h-.187v-.374l-.374-.187V76.9l-.374-.187-.187-.768-.374-.187-.187-.56H92.66l-.187-.747-.374-.187v-.374h-.187V73.52h-.187v-.56h-.187v-.374h-.208l-.187-.747h-.187l-.187-1.121H90.6c-.457-1.432.9-2.678.374-3.363v-.374l-.56-.187-.374-.56h-.374v-.187h-.56v-.187l-.56-.187-.187-1.121c.239-.2.2-.322.374-.56h.187v-.374l.56-.374v-.374h.187c.394-.467.955-.82,1.121-1.495h.374V61c.643-.176.477-.394,1.121-.56V60.07h.374l1.495-2.242h.374a2.076,2.076,0,0,1,.56-.934h.187V56.52h.208v-.374h.187v-.56h.187l.187-.56.374-.187v-.56H96.6V53.9h.187V52.6l.374-2.429h.187l.187-.747h.187l.187-.747.374-.187L98.6,47.18l.747-.56.187-.747.56-.374v-.374l.374-.374v-.374h.208V44l.374-.187.187-.56h.187V42.7h.187l.187-.56.374-.187.374-1.121.374-.187v-.374h.187v-.374l.374-.187.187-.747.374-.187V38.4h.187l.187-1.121h.187V36.9h.228l.187-.747h.187v-.374h.187V35.41h.187v-.374h.187v-.374h.187v-.415h.187l.353-1.038H106.3c-.208-1.194-.062-1.941-.934-2.429v-.374a3.052,3.052,0,0,0,.56-.56h.934a3.57,3.57,0,0,0,1.868-1.495h.374v.187l.56.187v.332h.187v.374l.374.187.187.747.374.187v.374l.374.187v.374h.187l.374,1.121h.187v.934h.187a2.781,2.781,0,0,1-.374,2.076c-.415.654-1.038.529-1.681.934v.187a1.349,1.349,0,0,1-.747.374l-.187.56h-.187v.56h-.187v.56h.187c.311,1.173,4.463,2.076,5.418.934h.56v.187c.415.477,0,1.868.374,2.429l1.681,1.495c.426.176.965-.062,1.308.187v.187h.187l.187.934h.187a1.692,1.692,0,0,1,.374.747l1.308.374v.187h1.121c.83.249,2.709.643,3.363,0h.187a4.847,4.847,0,0,1-.747,1.661ZM126.1,34.476h-.187V32.982h-.187c.114-.374,0-.156.187-.374v-.187a2.979,2.979,0,0,0,1.681.56C127.21,33.635,126.484,33.843,126.1,34.476Zm89.858,22.6v-.374l.374-.187.187-.747.747-.56v-.374l.374-.187.187-2.076a18.835,18.835,0,0,0,.934-4.484h.228v-.187c1.339.363,1.495,1.619,1.495,3.363v1.308H220.3l-.27,2.263h-.187v.56h-.187v.374h-.187l-.187.934-.374.187-.374,1.121-.374.187-.187.56h-.187l-.56,1.681h-.187a2.211,2.211,0,0,0-.56.934c-.592.156-.675.436-1.308.56-.125.509-.249.426-.374.934h-.56c-.384-.81-.56-.6-1.121-1.121l-.187-.374h-.374v-.145c-.384-.218-.415,0-.747-.374h-.187c.27-.913.654-.685,1.308-1.121l.187-.374h.374Zm-8.593-15.319.187-.374.747-.187.56-.747h.374l.374-.374,1.681-3.549c.955.581,1.038,1.868,1.495,2.989h.187v.747h.187v.56h.187v1.495a13.212,13.212,0,0,1-.374,6.912l-.374,2.8h-.187v.374h-.187l-.56,1.681-.374.187v.374l-.374.187v.374l-.747.56-.187.374h-.332l-.374.56H208.9l-.187.374-.747.187v.187h-.394v.187l-1.121.374V58.2c-.726.332-1.038.093-1.495.747a2.429,2.429,0,0,1-1.495-.934l-.187-.374-.934-.187v-.187l-3.549.374a14.125,14.125,0,0,1,0-4.484V50.916h.187c.176-.612-.156-1.287.187-1.681,0-1.495-.249-3.684.187-4.857l1.868-.56h.934v-.228l1.868-.187v-.187l.934-.187v-.187l.747-.187v-.1h.56l.187-.374h.374l.187-.374Zm-7.846-14.385.747-.187v-.208h.56V26.8h.374v-.187h.374v-.187h.374l.187-.374c.664-.436,1.038-.415,1.495-1.121,1.318.073.8.374,1.308,1.121l.56.374v.56l.374.187v.374l.374.187V28.1h.187l.187.747h.187a7.97,7.97,0,0,1-.187,3.176v1.495L205.5,36.9l-.374.187-.934,1.121-.768.187v.187h-.374l-.187.374h-.56a8.78,8.78,0,0,1-3.549,1.121l-.747-2.8h-.187l-.187-.747h-.187v-.374h-.187v-.374l-.374-.187-.374-1.121-.353-.228v-.374l-.374-.187V33.5l-.374-.187V32.94l-.747-.56v-.374l-.56-.374-.187-.374h-.374l-.934-1.308h-.187v-.187l3.176-1.121h.747v-.187h.56V28.27h.374v-.145h.747v-.187h.374v-.187l1.121-.187Zm-10.628,12.7v-.187h-.747v-.187h-.934V39.52l-1.121-.374V38.96l-.747-.187-.374-.56h-.56v-.187h-.374v-.187h-.374v-.187h-.374v-.187l-.747-.187-.187-.374-.934-.187-.208-.394-1.121-.187V35.95l-.747-.187V35.6h-.56V35.41h-.56v-.187L177.1,34.85v-.187l-.747-.187-.187-.374-.747-.187-.187-.374h-.374l-.374-.56h-.374l-.747-.934-.56-.187c-.394-.5-.446-1.1-.934-1.495V29.058h.187c.55-.55,1.038-.135,1.868-.374V28.5l3.549-.187V28.5h.934v.187h1.681v.187h.747v.187l1.121.187v.187l1.121.374v.187l.747.187.187.374h.374l.353.581.56.187,1.121,1.308h.394l.56.747h.374l.374.56h.374l.374.56h.374l.56.747.374.187V35.8l.56.374v.374l.56.374.187.747.374.187v.374l.374.187v.374a2.429,2.429,0,0,1,.56,1.681l-3.363-.187V40.1ZM174.879,24.2c.384-.81,1.038-1.142,1.495-1.868l.374.187v1.495h-1.142V24.2Zm17.934-5.044v.187h.747v.187c1.038.3,2.252-.664,2.989,0h1.495l.187.374h.187v.374l.374.187a2.242,2.242,0,0,1,0,1.681,1.546,1.546,0,0,0-.747.374v.187l-.747.187v.187l-1.142.374v.187l-5.044,1.681h-.934A5.988,5.988,0,0,1,187,25.7v-.187h-.747v-.187h-.56v-.187h-.56v-.228l-.747-.187-.187-.374-.747-.187-.187-.56h-.187v-.56h-.187l.187-1.495.934-1.121.934-.187.187-.374,2.076-.187v-.187h1.121a13.222,13.222,0,0,1,4.463-.332ZM164.791,21.4h.187v-.187c.675-.259,1.546-.28,2.242-.56v-.187h.56v-.187h.353v-.187h.374l.187-.374h.374v-.187l.56-.187.187-.374h.394v-.187l.747-.56V17.85l.747-.56v-.374l.374-.187v-.374h.208v-.56h.187v-.374h.187V12.245h-.187V9.817a9.111,9.111,0,0,1-.374-2.429c.239-.2.2-.332.374-.56h.187V6.454a15.308,15.308,0,0,1,2.387-1.266L178.221,5V4.773a12.9,12.9,0,0,1,4.67.374h1.121v.187h.934V5.52h1.121v.187h.374v.187l1.121.187v.145h.374v.187h.56v.228l.747.187.187.374.56.187c-.083,1.245-.571,1.567-.56,2.989.239.2.2.332.374.56h.187v.374l2.076,1.868v.187a6.943,6.943,0,0,1-2.242-.374h-2.242c-1.775,0-4.151-.218-5.6.187H180.67v.187h-.747v.187h-.747l-.187.374h-.56v.187h-.374V14.3h-.374l-.374.56-.747.187-.187.374H176l-.56.747h-.374l-1.121,1.308-1.308.934v.374L170.4,20.859v.374l-.374.187v.374l-.56.374v.187l-.374.187v.374H168.9l-.934,1.121c-2.314,0-1.868-1.256-3.176-2.076ZM162.175,9.983l.56-.374V9.256l.374-.187V8.7h.187l.56-.747h.374L163.3,10.19l-.353.187v.374l-.56.374V11.5H162.2c-.176.228-.135.363-.374.56A3.7,3.7,0,0,1,162.155,10ZM140.484,27.377l.56-.187.747-2.429v-.893h.187L142.352,22h.187v-.56h.187v-.56h.187l.187-1.121h.187v-.374h.187v-.6h.187l.187-.747h.187v-.56h.228V17.1h.187v-.56h.187l.374-1.121h.187v-.374h.1v-.374h.187V14.3h.187v-.374l.374-.374v-.374h.187l.187-.56.374-.187v-.374l.934-.747.187-.56c.436-.363.353.208.56-.56a1.422,1.422,0,0,0,.747-.374V9.63c.529-.342.965-.218,1.308-.747a3.487,3.487,0,0,1,1.308.187l-.187,1.868h-.124v.747h-.187v1.121h-.187v.56h-.187c-.259.82.145,1.484-.374,2.076-.291,1.038-.82.737-1.681,1.121v.187l-.747.187v.187h-.374l-.187.374h-.374l-.187.374-.934.187-.187.374-.374.187v.374H145.3v.374h-.187v.56h-.187V20.3h-.187v.374l-.374.187-.187.56-.56.374v.374l-.56.374c-.529.81-.56,1.806-1.308,2.429V25.9h.187c.218.851.778.768,1.495,1.121v.187h.56V27.4h.374v.187h.56v.187h3.549c-.363,1.36-1.785,1.889-2.429,2.989h-.374v.374l-.747.187-.187.374-.747.187-.187.374h-.374v.187l-1.121.187v.187h-.56v-.187c-.208-.156,0,0-.187-.187h-.187v-.374h-.187v-.374l-.747-.56v-.374C139.965,30.169,140.349,28.021,140.484,27.377Zm60.528,53.242-1.681.187v.145h-.374v.187h-.56l-.374.56-1.121.374-.187.374h-.374l-.187.374h-.374l-1.308,1.495c-.249.249-.944.529-1.121.747v.374l-.747.56v.374l-.374.187-.228.623h-.187v.374h-.187l-.374,1.121h-.187v.581h-.1v.56h-.187v.477h-.187v.56h-.187l-.187,2.989h-.187l-.187.747h-.187v.374l-.374.187v.374H189.1V95.9l-.374.374v.374h-.187l-.187.56-.374.187v.374l-1.121.934v.374l-.374.187v.374l-.747.56v.374l-2.8,2.242h-.56V103h-.934v.187h-2.076v.187a10.783,10.783,0,0,1-4.151-.56v-.187h-.934v-.187H173.9v-.187h-.581v-.187h-.374v-.145h-.664v-.208h-.747v-.187h-1.328v-.187a8.738,8.738,0,0,1-1.495-.374l-.187-.374h-.56V100.4h-.374v-.187l-1.681-.187v.187H164.4a5.459,5.459,0,0,0-3.176,2.242l-5.6-.187v-.187h-.747v-.166H154.5v-.208h-.747v-.187h-.56v-.187h-.747v-.187h-.747v-.166H150.2V100.8h-1.121v-.187l-1.121-.374v-.187h-.374v-.187l-.747-.187-.374-.56L145.3,98.74l-.187-.374h-.374l-.934-1.121h-.374l-.187-.56-.56-.374-.187-.934h-.187V95h-.125l-.374-1.121h-.187v-.56h-.187v-.374h-.187l-.374-1.868h-.187v-.56h-.187v-.56h-.187V89.4h-.208v-.374h-.187l-.187-1.308h-.187v-.747h-.187v-.747h-.187V85.29c-.612-1.972-.737-4.556-1.308-6.539V75.762l.187-7.1h.187a9.974,9.974,0,0,0-.56-4.857l-1.308-.934a3.259,3.259,0,0,1,.187-1.308h.187l.187-.934h.187l.187-1.121.374-.187.187-.747.374-.187.187-.934h.187v-.374h.187l.187-.747h.187l.187-.934h.187l.187-1.121h.187l.187-.56c.789.093.82.342,1.308.56h.56v.187h.374v.187h.934v.187h.374V55c-.239.125-.249.291-.374.374-.56.384-.934.363-1.121,1.121-.509.571.052,1.328.187,1.868a1.64,1.64,0,0,1,.747.374v.187l.747.187.187.374h.56v.187h.374v.187h.332v.187l.56.187.187.374.747.187.187.374h.56v.187l.747.187v.187l1.121.187V62.1a5.459,5.459,0,0,0,3.363-.56c1.619-.4,1.214-1.754,1.121-3.363l2.615-.374c.239,1.142.6,2.636.934,3.736v1.142h.187v1.308h.187v.56H158v1.121h.187v1.495h.187V68.85h.187v1.868h.228a13.182,13.182,0,0,1-.187,3.923v2.242c-.176.3-.623,0-.934.187-.623.28-.882.944-1.681,1.121-.249,1.038-.893,1.4-1.308,2.242H154.5l-.187,1.868h.187c.249,1.038.633.7,1.308,1.121l.187.374c.882.54,1.9.27,2.989.187v.187h-.56v.187h-.374v.187h-.374v.187H157.3v.187h-.581V85.1h-.374v.187h-.934l-.187.374-.747.187-.374.56h-.187v.374l-.374.187v.374l-1.681.934c-.114.374,0,.166-.187.374v1.495h.187l.56.747h.56c.7.332,1.8,1.328,3.176.934v-.187h.747v-.187h.934v-.187h.747c.208.114.249.7.374.934h.187v.56h.187l.56.747h.56V93.7l.56.187.187.374h.747a6.227,6.227,0,0,0,3.736.56V94.63l1.515-.187v-.187h.374l.187-.374h.374c.259-.2.125-.457.56-.747V91.455l-.374-.187v-.374h-.187a1.318,1.318,0,0,1-.374-.934l2.076-.56v-.145l.747-.56v-.789H170.4c-.218-.82-.81-.955-1.495-1.308v-.187h-.768l-.187-.374h-.374l-.187-.374h-.374l-.56-.747h-.394v-.187l-1.121-.374v-.187c-1.142-.415-3.01.4-3.923-.374h-1.495v-.187c.529-.249.747-.509,1.308-.747v-.187a.3.3,0,0,1,.374.187,4.037,4.037,0,0,0,2.076-.56c.9-.218,1.484-1.681,1.495-2.8l.56-.187c.249-1.121,1.806-2.9,1.308-4.484h-.187v-.56h-.187l-.187-.747h-.187v-.747H165.7v-.56h-.187v-.747a.477.477,0,0,1-.187-.56h.187V69.784h.187v-.747h.187V68.29h.166v-.934a5.8,5.8,0,0,0,.374-1.868h-.187l-.353-1.142-.374-.187v-.374h-.187a7.857,7.857,0,0,1-.187-3.736c.9.208.893.726,1.681.934l.187.934h-.187v.353h-.187v1.495h.187c.125.467.093.311.374.56v.187h.374l.374.56h.56v.187h.56v.187h1.868c.768.228,2.076.955,3.363.56v-.187a12.579,12.579,0,0,1,1.495-.374,7,7,0,0,0,.374-2.076l-1.308-1.495h-.374l-.56-.747h-.187v-.187l.56-.374v-.187h.374l.374-.56h.353a2.512,2.512,0,0,0,1.495-1.681h.187v-.125c-.239-.2-.2-.332-.374-.56h-.187v-.374l-.374-.187a2.9,2.9,0,0,0-1.495-1.121v-.187h-1.328V55.4l-2.615.187c.228-1.038,1.038-1.411,1.681-2.076,1.3-1.3,2.076-2.75,3.923-3.549.114-.374,0-.156.187-.374V48.114a4.764,4.764,0,0,0-4.151-1.308v.187h-.56v.187h-.374v.187l-.934.187-.934,1.121-.56.187v.374l-.56.374v.374l-.374.187-.747.934-.747.187v.187c-.446.228-.9,0-1.495.187v.228h-.747v.187h-.332v.187c-.8.4-1.225.1-1.495,1.121H162.3v1.308a9.964,9.964,0,0,0-2.615-.747l-.187-.934h-.187c-.249-.944-.9-.893-1.681-1.308v-.228h-.374v-.187h-.54l-.187-.374-.56-.187-.56-.747h-.374v-.166h-.394v-.208h-.56v-.187H153.6v-.187h-.374v-.187h-.747v-.187h-.374v-.187l-1.308-.187V48.3h-.374v-.187l-1.308-.187V47.74h-.747v-.187H146.13v-.187l-1.681-.187v.187c-1.391.28-3.114-.259-3.923.56h-.187l-.56-3.363a1.733,1.733,0,0,0,.374-.374h.934l.187-.374h.374v-.228h.374V43.4h.56v-.187h.374V43.07l.56-.187a5.107,5.107,0,0,1,.934-1.868c0-1.183,0-1.671-.747-2.076h-.56v-.187h-.374c-.1-.062-.135-.259-.374-.374v-.747h-.208v-.166h.187v-.374a11.115,11.115,0,0,0,3.923-.934v-.187h.374l.187-.374,1.121-.374.187-.374h.374l.374-.56h.374l1.308-1.495h.374l.187-.374,1.308-1.121v-.374l.374-.187a6.123,6.123,0,0,0,1.495-1.868h.311a3.84,3.84,0,0,1,1.121-1.495h.187l.187-.56.56-.374,2.47-2.574h.374v.187l1.121.934v.374l1.121.934.187.374h.374l.187.374h.415l.187.374h.374v.187l.747.187v.187l1.308.187v.187c.882.27.436.384.747,1.121h.187v.56h.187v.56h.187l.187.747h.187v.56h.187v.374l.374.187v.374l.374.187V33.4l1.308,1.121.56.747h.374l.187.374.747.187.187.374h.374l.187.374h.374l.187.374.747.187v.187l1.121.374v.187h.747v.187h.56v.187h.56V38.4h.56v.187h.519v.187h.747v.187l1.308.187v.187h.374v.187h.56c4.058,1.806,7.607,4.3,12.7,5.044a12.526,12.526,0,0,1,0,3.736v1.681h-.187V52.41c-.27.965.114,2.657-.187,3.736h-.187v1.308h.187v2.8h.187l.187,1.121.374.187v.374h.187v.332l.374.187.934,1.121a15.7,15.7,0,0,1,3.923.56c.363.5-.571,2.159-.187,3.176h.187v.374c.052.083.259.166.374.374a49.453,49.453,0,0,0,5.189,1.495,9.86,9.86,0,0,0,3.549-.187h.187v.187h1.121l.56,5.791L209,76.655h-.374l-.374.56h-.374V77.4h-.311l-.187.374-.747.187-.374.56h-.374v.187h-.747l-.374.56H204.4v.187h-.374v.187h-.6v.27h-.56V80.1h-.56v.187l-1.308.187ZM197.462,129a7.047,7.047,0,0,0-2.8.747h-.581v.187l-.747.187v.187h-.374v.187h-.56l-.187.374h-.374v.187h-.374v.187l-1.495.187v.187h-.56v.187l-1.308.187v.187h-.374v.187h-1.121v.187h-.747v.187h-.747v.187h-.747v.187h-.747v.187h-.747v.187h-.56v.187l-1.308.187v.187h-.374v.187h-.56v.187l-2.242.187v.187h-.747v.187h-.56v.187h-.56v.187l-1.308.187v.187l-2.989.187v-.187l-1.681-.374v.187l-.747.187v.228h-.56v.187h-.54v.187h-.747v.187h-3.4a31.01,31.01,0,0,1-8.78-.934h-1.079c-1.567-.457-3.56-.342-4.484.747h-.187l.187.934-.187.56h.187v.747l.747.56v.187h.374v.187l.747.187v.187h.56v.187h.747v.187h1.121c1.474.446,3.342.675,4.857,1.121h1.495v.187h2.242v-.187h4.857l1.681-.56V141h.747v.145h.56v.187l2.429-.187v-.187l2.076-.374V140.4h.519v-.187h.56v-.187h.56v-.187h.374v-.187h.581v-.187h.374v-.187l1.121-.374v-.187h1.308v.187l2.076-.187v-.187h.311v-.187h.747v-.187h.374v-.187h.747v-.187l.747-.187v-.187h.934v-.187h.6V137h.934v-.187h1.142v-.187h.56v-.187h.56v-.187h.747v-.187l2.242-.374V135.5h.56v-.187h.374v-.187l1.308-.187v-.187l2.076-.187v-.187h.374v-.187l.934-.187v-.125l.56-.187c.187-.893.747-2.46,0-3.176C198.884,129.544,198.013,129.617,197.462,129Zm44.628,20.55H241.9l-.187-2.615h-.187v-.747h-.187l-.56-2.429H240.6v-.54h-.187v-.374h-.187l-.187-.934h-.187l-.187-.747h-.187l-.374-1.121-.56-.374-.187-.56-.56-.187-.187-.374h-.374s-.27-.291-.374-.374v-.187h-.374v-.187h-.374v-.187h-.519v-.187h-.374v-.187h-.56V137h-.374v-.187h-.56l-.187-.374h-.56l-.187-.374-.747-.187v-.187l-.747-.187v-.187h-.56v-.187h-.374v-.187l-3.363-.56v-.187l-.747-.187-.187-.374h-.374l-.187-.374h-.374l-.187-.374-1.121-.374-.374-.56h-.374l-.187-.374h-.374v-.187l-1.121-.374-.374-.56-.747-.187-.187-.374h-.374v-.166h-.374v-.187l-3.363-.747v-.187l-.747-.187v-.187l-1.121-.187v-.187h-.374v-.208h-.374v-.187l-1.121-.374v-.187l-1.868-.187v-.1h-.727a1.328,1.328,0,0,0-.374-.374l-.374-2.615h-.187v-.56h-.187l.374-3.176c.675-.176.778-.623,1.308-.934l.187-1.868h-.187v-.56h-.187v-2.47h-.187v-.374h-.187v-.56h-.187l-.56-5.978h-.187V106.4h-.187v-.374h-.187v-.747h-.187l-.187-.747-.374-.187v-.56h-.187v-.374h-.187l-.187-1.308h-.187V97.059h.187c.062-.384-.353-.7-.187-1.308h.187V93.323h.187V92.2h.187v-.934h.166v-.56h.187v-.415h.187l.187-.934.56-.374v-.374h.187V87.531s.125,0,.187-.374c-.384-.311-.156-.426-.374-.747h-.187a1.349,1.349,0,0,1-.374-.747l-.747-.187V85.29h-1.121v.187h-.934v.187h-.56v.187h-.56c-.457.2-.716.6-1.308.747l-.187.934-.374.187-.187.934-.374.187-.187,1.868h-.249l-.187,4.857h.187v1.308h-.187a20.6,20.6,0,0,0,.187,5.189v2.076c.415,1.328,1.266,2.553,1.681,3.923l.187,4.484h.208l.187.747.56.374.187,1.121h.187v.415h.187a4.38,4.38,0,0,1-.374,2.242l-.56.374v.374h-.187v2.989h-.187v.56h-.187l-.187,1.121h-.187a2.927,2.927,0,0,0,.374,1.868v.747h.187v.374h.187v.934a4.639,4.639,0,0,0,2.076,2.8,6.072,6.072,0,0,0,.187,1.308l2.076.747v.166l1.681.374v.187l1.121.374v.187h.747l.187.374h.56v.187h.374v.187h.56v.208h.374v.187h.747v.187h.374v.187h.934v.187h.747v.187h.747l.187.374.747.187.187.374h.374l.374.56h.374l.187.374h.374l.187.374h.374l.187.374h.374l.187.374h.374l.187.374.747.187v.187h.374v.187l1.121.374v.187h.56v.187h.374v.187l.747.187v.187l2.615.56v.187h.374v.187l1.121.374v.187l.747.187v.187h.56v.187h.332v.187H232v.187h.374l1.308.934v.374l.374.187v.374h.187v.374h.187v.581h.187v.934h.187v.374h.187v.56h.187v.56h.187v.56h.228v.56h.187v.934h.187a4.349,4.349,0,0,1-.934,3.549l-.187.747-.374.187v.374l-.374.187v.374l-.56.374-.374,1.121-.374.187-.187.747-.374.187v.374l-.374.187v.374l-.56.374v.374l-.374.187v.374h-.187v.56h-.187v.374h-.187v2.615l.934,1.121c.311.218.426,0,.747.374h1.868v-.187h.374v-.187h.56c.073,0,1.038-.7,1.121-.747v-.374l.56-.374v-.374h.187v-.56h.187l.374-1.121h.187l.187-.747.56-.374v-.374l.374-.187v-.374l.374-.374v-.374h.187V158h.187l.187-.747.374-.187.187-.747.706-.643.56-1.681h.187v-.374l.374-.187.187-.934h.187Z" transform="translate(0.001 -0.042)" fill="#231815" fill-rule="evenodd"/>
  </g>
</svg>
