<svg id="レイヤー_1" data-name="レイヤー 1" xmlns="http://www.w3.org/2000/svg" width="243.12" height="194.16" viewBox="0 0 243.12 194.16">
  <path id="パス_376" data-name="パス 376" d="M242.577,108.209v-.536H242.4l-.179-.536-.357-.179-.179-1.429h-.179v-.377l-.357-.179v-.357h-.179l-.536-.714h-.367l-.179-.357h-.357v-.179c-.407-.337-.665-.734-1.25-.893v-.3h-.357c-.248-.9-.684-.546-1.071-1.071s-.278-.724-.893-1.071v-.357H235.6l-.536-.714-1.984-1.786-.357-.536h-.357l-1.607-1.786h-.357l-.357-.357v-.357h-.179l-.357-.536-1.349-1.29V91.96l-.357-.357h-.357l-.357-.536L225.842,90l-.179-.536-.536-.179-.893-1.071h-.357l-1.25-1.429h-.417V86.6l-.536-.357-.179-.536-1.071-.893-.179-.357h-.357L218.1,82.476c-.347-.308-.843-.268-1.25-.536L216.5,81.4h-.357v-.159l-.357-.179v-1.25H215.6l-.179-.714h-.159v-.357h-.179v-.377h-.179v-.357l-.357-.357V77.3l-1.984-1.786-.714-1.071H211.5l-.2-.337c-.6-.367-1.24-.139-1.984-.357v-.179h-.992l-.536-.714h-.179V72.5l-.357-.179-.536-.714h-.377l-1.071-1.429c-.585-.6-1.369-.992-1.984-1.607L199.712,64.6l-2.3-2.1a25.266,25.266,0,0,0-2.678-3.036l-1.071-.893v-.357l-.536-.357v-.317l-1.071-.893v-.4l-2.143-1.984c-.694-.694-2.113-2.609-3.036-2.857v-.357l-.377-.159v-.179h-.357l-.893-1.071h-.357v-.357l-.536-.179v-.179l-.536-.179-.179-.357h-.357l-.357-.536h-.357l-.536-.714h-.357v-.179l-.536-.179-.179-.357h-.357l-1.428-1.607-.536-.179-1.25-1.429h-.357L176.5,42.5h-.357l-.179-.357-.536-.179v-.179a1.389,1.389,0,0,0-.714-.357v-.357a1.915,1.915,0,0,1-.893-.536v-.179h-.357L173.285,40h-.357l-.357-.536h-.357l-.179-.357h-.357l-.179-.357h-.357V38.57h-.357l-.357-.357h-.357l-.357-.536L169,37.5l-.179-.357h-.357l-.179-.357-.893-.714-.179-.714h-.179l-.179-1.071h-.2v-1.25h-.179a8.69,8.69,0,0,1,.357-3.75l.179-3.393V23.749h-.179l-.179-1.071h-.179l-.179-.714h-.179v-.357l-.357-.179-.179-.714-.357-.179v-.357l-.536-.357-1.012-1.25h-.357l-.357-.536-.536-.179-.179-.357H161.9v-.179l-.536-.179L161,16.606l-1.071-.357v-.179h-.357v-.2h-.357v-.179l-1.071-.357v-.159L157.076,15v-.179h-.337l-.179-.357-1.071-.357v-.218l-1.071-.357v-.139l-1.071-.179v-.179h-.575V12.9h-.536v-.179H151.7V12.5h-.536v-.179l-1.607-.179a7.619,7.619,0,0,0-3.571-.357v.179h-.536v.179h-.714v.179h-.357V12.5a.436.436,0,0,1-.536-.179h-.893v-.179l-.714-.179v-.179h-1.071c-.585-.179-2.579-.7-3.571-.357v.179h-.357v.179l-1.607.179v.179h-.357v.179h-.714V12.5h-.536v.179H132.93V12.9h-.536v.179h-.357v.179h-.714v.179h-.536v.179h-.714v.179L129,14.146l-.179.357a3.105,3.105,0,0,1-1.25.893,4.018,4.018,0,0,0-1.428-.893v-.218h-.536v-.179l-.714-.179-.179-.357h-.357v-.179H124v-.179h-.357v-.179h-.536l-.179-.357-.714-.179.179-1.786h.179l.179-.714h.179a2.351,2.351,0,0,0-.357-1.786c-.873-1.488-4.563-2.1-6.944-1.429h-1.25v.159h-.357v.2h-.714v.179L112.1,7.5a7.827,7.827,0,0,0-.893-.714l-.179-.357h-.357l-.714-.893H109.6l-.179-.357-1.071-.357-.218-.357-.893-.179-.188-.317-.536-.179V3.571h-.367V3.393h-.357V3.214h-.536V3.036H104.9V2.857h-.536V2.678h-.714V2.5h-.893V2.321h-1.071V2.143H100.61V1.984c-.7-.278-.169.228-.714-.357h-.179l-.179-.536H99.2L99.013.714,98.12.536V.357L96.136.179V.357H95.6V.536h-.893V.714H93.3V.536L92.049.357V.179h-.536V0h-3.75V.179h-.536V.357h-.536l-.179.357h-.536V.893h-.357v.179h-.308l-.179.357h-.357v.179h-.893v.179c-1.1.317-1.984-.2-2.857.357l-.536.714h-.357l-.357.536H79.6V3.75l-.893.714v.357l-.536.357v.357l-.357.179v.357l-.436.179-.179.536H77.02l-.179.714-.357.179-.1.536h-.179l-.357,1.071-.357.179v.357L75.135,10v.357l-.357.179v.179l-.377.2v.357h-.179a1.835,1.835,0,0,0-.536.893H73.33a1.915,1.915,0,0,1-.536.893h-.179v.357h-.2l-.536.714-.357.179v.357h-.179c-.337.407-.744.665-.893,1.25-.446.109-.3.089-.536.357h-.179v.357H69.56l-.179.536h-.357c-.228.794-.684.635-.893,1.429h-.357s-.7,1.042-.714,1.071H66.7v.357a3.6,3.6,0,0,0-1.429,1.071l-.179.357h-.357v.179l-.536.357-.357.536h-.357l-.536.714-.536.179-.179.357-.714.179-.179.357h-.357a13.412,13.412,0,0,0-1.984,1.786c-.556.556-1.2.893-1.429,1.786h-.357l-.357.536L55.255,29.84l-.179.357H54.72L53.3,31.744h-.357l-.893,1.071-.893.714-.179.357h-.387L49.7,34.959c-.556.546-1.567.992-1.786,1.786-.516.129-.6.188-.714.714-.734.179-.7.546-1.071,1.071H45.95a1.29,1.29,0,0,0-.357.714h-.357l-.714.893h-.179v.357l-.357.179-1.607,1.786h-.357c-.179.635-.516.684-.893,1.071L39.7,45.137h-.357L38.3,46.426h-.357v.357a6.944,6.944,0,0,0-2.5,2.5h-.357c-.238.853-1.061,1.24-1.607,1.786l-.536.714h-.208v.357l-.357.357h-.357l-.357.536h-.179v.357l-.536.179-.893,1.071c-.506.506-1.21.813-1.429,1.607h-.357l-1.429,1.607-.357.179v.357l-.694.536v.357l-.357.179v.357l-.714.536v.357l-.536.357-.179.714-1.071.893v.357l-.714.536v.179l-.357.179v.357l-.357.179-.675,1.071h-.357c-.208.744-.784.992-1.25,1.429l-.536.714-.357.179v.357l-1.468,1.23-.179.536-1.071.893v.357l-.357.179-.179.536-.714.536v.357l-.357.179v.4l-.714.536-.179.536-.357.179v.357l-.536.357-1.984,2.143H9.92v.357L8.3,79.282l-.179.536-.536.357v.357l-.536.357-.893,1.25H5.8c-.218.774-.565.615-.893,1.071v.357l-.357.179V84.1l-.893.714-.179.714-.506.357v.357l-.357.179-.179.714L1.9,87.5v.357l-.357.179v.357l-.357.179v.357L.833,89.1v.357H.625v.357H.446c-.7,1.6-.466,7.262,0,8.928v3.571H.625v.536H.8l.179.714h.179v.536h.179l.179.536c1.359.347,1.805,1.815,2.5,2.857l.357.179.357,1.071.357.179v.357h.179v.357l.357.357v.357l.536.357v.4l.357.179.179.536h.179v.278l.357.179.179.536h.179v.357h.179v.357h.169v.357l.357.357v.357l.536.357,1.25,1.429h.357l.179.357.536.179v.179l1.071.179v.179h.357v.179h.714v.179h.357l.179.357.714.179.179.357h.357v.179h.357v.179h.536v.179h.536v.179h.714v.179h.714v.179l1.786.179v.179H21.15v.179h.536v.179H22.4v.179h.714v.179h.694v.179H24.7v.179l3.968.179v.179l1.25.179v.179l.714.179v.179h.536v.179l.714.179v.179l1.071.179v.179h.357v.179l4.286.893v.179h.357v.179h.536v.179l.714.179v.179h.357l.179.357,1.786.536v.179h1.607v.179h1.786a6.438,6.438,0,0,0,4.464-.893c.466-2.45-.992-1.686-2.678-2.321h-.536v-.159h-.357v-.179h-.536v-.179h-.357v-.179h-.357V122.3H44.2v-.179h-.556v-.179l-.714-.179v-.179h-.357V121.4h-.536v-.179l-.714-.179v-.179h-.536v-.179h-.357v-.179H39.72v-.179h-.536v-.179h-.5v-.119h-1.28v-.179h-.536v-.179l-1.786-.357v-.179h-.367v-.179h-.536l-.179-.357h-.893v-.179h-.377v-.179l-.992-.2v-.179H30.624v-.179h-.714v-.179H29.2v-.179l-3.571-.179v-.179H24.91V116.8H24.2v-.179H23.66v-.179h-.843v-.179H21.7v-.2h-.863v-.179l-2.143-.179v-.179l-.714-.179v-.179h-.357l-.179-.357-.893-.179-.179-.357h-.357v-.2h-.357V113.9h-.893v-.179H14.4v-.179h-.357v-.179l-.357-.179v-.357l-.536-.357-.179-.714H12.8l-.179-.536-.357-.179v-.357l-.893-.714-.179-.714-.357-.179v-.357l-.536-.357v-.357l-.357-.179v-.357l-.565-.337-.179-.714-.357-.179v-.357l-.357-.179v-.357H8.3v-.357l-.536-.357v-.357L7.41,104.1l-.179-.536-.893-.714v-.357l-.387-.179-.179-1.984a21.566,21.566,0,0,1-.536-5.893v-2.3h.179V91.6h.179v-.337h.179v-.357l.357-.179v-.357l.357-.179.357-1.071.357-.179v-.357l.536-.357.2-.734.367-.2V86.94l1.071-.893V85.71L11.16,84.1c.585-.605.992-1.369,1.607-1.984l2.857-2.678v-.357l1.24-1.052v-.357l.536-.357v-.357l.536-.357v-.357l.536-.357v-.357L19.186,75v-.357l3.036-2.857v-.357l1.429-1.25v-.357l1.071-.893v-.357l.893-.714v-.4l.536-.357v-.139l.357-.179v-.317l1.071-.893v-.4l.536-.357v-.337l.536-.357v-.357l.893-.714.218-.556.357-.179v-.357l.357-.179,1.071-1.429H31.9c.119-.446.089-.288.357-.536V59.64h.357l.179-.357.893-.714,4.643-4.821,1.071-.893.357-.536.536-.179v-.357h.377c.188-.615.506-.526.893-.893L42.28,50l1.557-1.389.893-1.071.357-.179V47l.714-.357v-.357L47.785,44.5v-.357l.893-.714v-.357l1.607-1.429,1.429-1.607h.357l1.607-1.786h.357l.893-1.071h.179v-.357A1.885,1.885,0,0,0,56,36.288v-.179h.357l.893-1.071.714-.357v-.357c.794-.218,1.1-.923,1.607-1.429l2.3-2.143v-.4l.893-.714.179-.357H63.3l.357-.536,1.071-.357.179-.357h.357v-.179h.357l.536-.714h.357L68.3,25.158h.357l1.25-1.429h.357l.893-1.071h.357l1.25-1.429.536-.357v-.337l.357-.179V20l.893-.714v-.357l.714-.536v-.357l1.25-1.071.179-.536.536-.357v-.357l.357-.179L77.764,15h.179v-.357l.536-.357v-.4l.357-.179.179-.536h.179V12.9l.536-.357.179-.714h.179l.179-.536.357-.179v-.4l1.25-.893V9.464l.357-.179V8.928l.536-.357.179-.893.387-.179.893-1.071h1.786V6.25h.536V6.071H86.9V5.893c.774-.407,1.984-.645,2.5-1.25,1.151,0,1.061,0,1.607.536l.357.179v.357h.179l.536.714h.179l-.893,1.25c-.179.5.119.9.179,1.25a1.518,1.518,0,0,1,.714.357v.179h.357v.179h.536l.536.714,1.548.357v.2l.536.357.179.536.714.179.179.357h.377v.179h.357V12.7h.536v.2h.536l.179.357H99.2v.179l1.607-.179c.992.268,2.063.357,2.678,1.071h.179V14.5h-.179c-.6.863-1.26.228-2.321.536v.179h-.714l-.357-.179v.179H98.11l-1.071.893v.357l-.357.179v.179L95.432,17c-.526.218-.813.744-1.429.893-.218.784-.873.992-1.071,1.786h-.357c-.228.843-.992,1.1-1.429,1.786h-.357v.357L90.254,22v.179h-.536v.179h-.536v.179h-.536v.179l-.893.179-.179.357h-.357l-.714.893h-.357L84.54,25.931h-.357l-1.071,1.25h-.357l-1.409,1.587h-.357l-.536.714H80.1l-.536.714H79.2l-.536.714H78.31l-.357.536H77.6l-.536.714H76.7v.357a3.224,3.224,0,0,0-1.25.714l-.179.357h-.357l-.179.357H74.4l-.536.714h-.357v.179h-.357v.179c-.585.218-1.161-.089-1.607.179l-.179.357h-.357l-.714.893-.714.179-.536.714h-.357l-1.071,1.25h-.357l-.714.893h-.357l-1.1,1.19-.357.179v.357l-.357.179v.357l-.357.179L62.229,47.1l-.357.179v.357l-.357.179-.357,1.071h-.179l-.179.536-.357.179v.357l-.357.179v.357l-.357.179v.357l-.357.179v.377l-.357.357V52.3h-.179v.357h-.179v.357l-.357.179v.377l-.357.357v.357h-.179L57.586,55l-.357.179-.179.536h-.179l-.327,1.071-.357.179-.179.714-.357.179-.179.714-.357.179-.179.714-.357.179-.179.714-.357.179v.357h-.179v.357l-.536.357v.357l-.357.357v.357l-.357.179-.357,1.071L51.9,64.1l-.179.714L51.367,65v.357l-.357.179v.357l-.417.179-.357,1.071L49.7,67.5v.357l-.357.179-.179.536h-.179l-.179.714-.536.357-.179.536h-.179v.357l-.714.536-.179.714-.357.179v.357l-.357.179v.357l-.536.357v.357l-.357.179-.179.536h-.179v.357l-.357.179v.357l-.714.536v.357l-.357.179V76.6l-.536.357v.357l-.536.357-.179.714-.357.179v.357l-.536.357v.357l-.357.179v.357l-.536.357v.357l-.536.357-.179.714-.357.179V82.5l-.536.357v.357l-.357.179-.179.714-.357.179v.357L37.558,85v.317l-.536.357v.357l-.357.179a7.936,7.936,0,0,0-1.071,2.5l.893,1.071c1.111,0,2.51.317,3.393-.179V89.42l1.25-1.071v-.357l.893-.714V86.92l.357-.179.179-.536.714-.536v-.357l.536-.357V84.6l.357-.179v-.357l.536-.357v-.357l.357-.179.179-.536h.179l.179-.714.357-.179v-.357l.536-.357v-.357l.357-.179v-.357l.357-.179.179-.714.536-.357v-.317l.357-.179.179-.714.357-.179v-.357l.357-.179V76.6l.536-.357v-.357l.357-.179v-.317l.357-.179.179-.536h.179v-.357l.357-.179v-.357l.357-.179v-.4l.357-.179v-.357L52.2,72.5v-.357l.357-.179.179-.714.357-.179v-.357l.536-.357V70l.357-.179v-.377l.357-.179.218-.516h.179V68.39l.357-.179.179-.714.536-.357v-.357l.357-.179.179-.714.536-.357.179-.714.357-.179L57.6,64.1h.179v-.357h.179V63.39l.357-.179.218-.714.357-.179.357-1.071.357-.179v-.357l.357-.179v-.357L60.315,60l.179-.714.357-.179.357-1.071.357-.179.179-.714.536-.357.357-1.071.357-.179v-.357l.536-.357.357-1.071.357-.179v-.357l.357-.179v-.357l.357-.179.179-.714.337-.2.179-.536h.179l.357-1.071.357-.179.357-1.071.357-.179.179-.714h.179v-.357h.179v-.357h.179v-.357h.179v-.337h.179v-.357h.119l.714-2.143.357-.179v-.357l4.464-3.571,2.143-.357v-.179h.357l.179-.357h.357l2.5-2.678c.407-.367.992-.417,1.25-.893h.179l-1.984,3.75-1.429.179-.159.4-.536.179c-.119.149-.159.744-.357.893l-.714.179v.179h-.357v.179h-.357l-1.071.893-.179.714h-.179v.357h-.179v.714a12.748,12.748,0,0,0-.357,3.968v2.857l.536,1.607.357.179v.357l.357.179v.357h.179v.357H74.7v.536l.357.179.179.714.536.357v.179h.357l.357.536h.536v.179h.357v.179h.357l.179.357H79.52c.188,1.915.3,3.4-.536,4.821v.357c-.179.228-.665.2-.893.357L76.842,64,77.2,67.04c.238.2.327.486.536.714l.357.179.179.536h.357v.357c.546.109,2.579.238,3.036-.179,1.438.089,1.508,1.27,2.143,2.143l1.071.893.179.357c.3.208.407,0,.714.357.992,0,1.766.069,2.143-.536h.179v.179c.446.446.149.764.357,1.429h.179V74.54h.179v1.25h.179v1.429c.575,1.984.665,4.474,1.25,6.428v1.071h.179c.2.655,0,1.329.357,1.786V87.5h-.179c-.536.526-2.053.575-2.857.893v.179H87.2v.179h-.536v.179h-.536V89.1h-.536v.179h-.536v.179H84.52v.179l-1.984.179V90l-.893-.179H78.657v-.179h-.536V89.46h-.744v-.179H77.02V89.1a6.676,6.676,0,0,0-2.857.536v.179c-.278.238-.228.1-.357.536a2.113,2.113,0,0,1-1.389-.536l-.179-.357h-.357L71.7,89.1h-.357v-.179H68.667V89.1l-3.393.536v.179l-1.071.357v.179h-.536v.179H60.8v.179h-.714v.179h-.893v.179H56.337a27.975,27.975,0,0,1-7.5-.893l-5.357.179v-.179l-1.429.179v-.179H40.8v.179l-1.071.179v.179l-.714.179v.179H38.48v.2c-.129.1-.337.347-.357.357h-.357l-.179.357H37.23l-.357.536h-.357v.179l-.714.536v.357h-.179c-.179.218-.129.347-.357.536,0,1.171.169,1.756,1.071,1.984v.119h.714V96.4l2.678-.179v-.179h.357v-.179l1.071-.357.179-.357h.536v-.179h.179v.179h.179v-.179l3.571.179v-.179a6.6,6.6,0,0,1,3.393.357H49.6v.179h-.536v.179l-.536.357v1.27h.179v.357h.179c.169.188,0,0,.179.179h.179v.179l.536.357v.357l.714.536v.357l.357.179v.377l.357.179v.536h.179v.357h.179l.179.714h.179v.536H52.1v.357h.179l.179,1.25h.119v.357h.179l.179,1.071h.179l.179.714h.179l.179,1.607h.179v.714h.179l.357,3.75a19.692,19.692,0,0,1,.179,4.96h-.179v2.321h-.179v1.25h-.179v.893h-.179l-.357,1.071h-.179l-.179.714-.357.179v.357l-.536.357v.357l-.714.536c-.357.5-.436,1.052-.893,1.428v1.071l.357.179v.357l.893,1.071h.357l.357.516h.357l.179.357a4.494,4.494,0,0,0,1.607,1.25,4.176,4.176,0,0,0,1.607,1.786l.357,2.143h-.139v1.25h-.179v1.786h-.179v.893h.179l.179,3.214c-.2.675-.992,2.827-.714,3.75h.179v2.678h.179v1.428l1.428,7.143-.179,3.214c-.188.565-.932,1.934-.536,3.036h.179v.357h.179l.179.714.536.357.179,1.071h.179v3.254a6.438,6.438,0,0,1,.357,3.214h-.159v1.984h.179a10.734,10.734,0,0,1-.179,3.571v2.857H58.35l.179,4.643c.228.188.179.317.357.536h.179v.357h.179l.179.357c.317.248.258-.079.536.357l2.321-.179c.337-.139.734-.536,1.071-.714l.357-1.071h.179v-.714h.179v-.893h.179V181.8h.179v-2.5a32.488,32.488,0,0,0,0-8.392l-.179-6.25h-.179v-.536h-.179V163.4l-.536-.357-.179-.714h-.179a.446.446,0,0,1,.179-.536l.179-4.464h-.179v-1.587h-.179l-.179-2.143h-.179v-1.071h-.179v-.754h-.179l-.536-7.5h.179v-1.25H62.1c.208-.774-.129-1.756.179-2.321,0-.258-.228-.278-.179-.714l.179-.357H62.1a6.944,6.944,0,0,1,.357-2.5v-.357c.129-.218.684-.218.893-.357v-.179a4.793,4.793,0,0,0,.714-.536h.179v1.071a1.647,1.647,0,0,1,.357.357h.714v-.179l.536-.357v-.357l1.071-.893.357-1.071.357-.179v-.357h.179v-.357h.179v-.536h.179v-.913h.179v-.357h.1l.179-.714.357-.179v-.536h.179v-.536h.179l.714-3.214h.179v-.357h.2a18.671,18.671,0,0,0,.714-3.571h-.179v-.357H70.79a1.617,1.617,0,0,1-.357-.714l-1.984-.536v.159h-.357v.179l-.536.179c-.159.565-.516.813-.714,1.25v.536l-.357.179v.357h-.179v.536h-.179v.357h-.179v.536h-.179v.714h-.179v.893h-.119v.893h-.179v1.329h-.179v1.25a10.218,10.218,0,0,0-.536,3.214,1.428,1.428,0,0,1-.714-.357v-.179h-.377l-.179-.357h-.179l-.179-.357H62.6l-.357-.536h-.357l-.179-.357-1.25-1.071v-.357l-.357-.179-.714-.893h-.357l-.357-.536h-.139v-.357l-.536-.179v-.179c-.317-.278-.407-.208-.536-.714h-.179l.179-.714h.179v-.357l.357-.179.179-.714h.179v-.536h.179v-.536h.179v-.357h.179l.179-1.25h.179v-1.151h.179v-.992h.1v-1.29H59.7v-2.321h.179a11.279,11.279,0,0,0-.179-3.75v-1.786h-.179v-1.25h-.179v-.714h-.179v-1.071h-.179v-.536h-.179c-.2-.506-.129-.992-.357-1.429h-.179v-.357h-.179l-.357-1.607h-.179l-.179-.893H57.2l-.179-.714h-.179l-.3-1.607-.357-.179-.179-.714-.357-.179v-.357l-.357-.179-.357-1.071-.536-.357v-.357a4.573,4.573,0,0,0-1.825-1.091V95.69c1.776.079,4.028.179,6.071.179h2.321V95.69h.893v-.159h.714v-.179h2.5v-.179h.714V95c.665-.258,1.359-.238,1.786-.714a2.639,2.639,0,0,1,1.607.357l.179.357h.357l.179.357h.357v.179h.357v.179h.536v.179H71.5v.179h3.968c.377-.466.933-.7,1.25-1.25h5.357v-.179h.179v.179l2.5-.179V94.46l1.984-.357v-.179h.714v-.179h.714v-.179h.536v-.179h.536v-.139l1.032-.218v-.179H91.7v.179l.357.179v.357l.536.357L92.952,95l.357.179a3.631,3.631,0,0,0,.893.893h.357v.159l4.96.536v.179h.357v.179h.536V97.3h.357v.179l1.071.357v.179l4.464.536.179.357,1.25.179v.179h.536v.179h.714v.179h1.429V99.8l.714.179.536.714.714.179.179.357h.536v.179h.714v.179h.357l.179.357h.357l.357.536h.536v.179h4.821l.179-.357h.893v-.119h.536V102h.357v-.179h.536v-.179h.714a6.765,6.765,0,0,1,2.678-.893,3.8,3.8,0,0,1-.536,1.428,14.85,14.85,0,0,0-1.428.536h-1.429v.179h-.536v.179a.5.5,0,0,1-.536-.179c-.466-.079-.536.179-.536.179H119.32v.1h-1.071v.179h-2.321c-2.579.724-5.813.129-8.035-.536h-1.25v-.179l-2.143-.179v-.179l-1.071-.357v-.179h-.536v-.179h-1.706a3.788,3.788,0,0,0-.536-.536v-.357l-.536-.179v-.179h-.357v-.119l-.893-.179-.179-.357h-.357L98.15,99.3h-.357v-.2h-.357v-.179H96.9v-.179a2.659,2.659,0,0,0-1.984.357c-.992.3-.337.506-.714,1.071h-.179a3.968,3.968,0,0,0,1.429,2.678l.179.357h.536v.179H96.7v.179h.714v.179h.357v.179l.893.179v.179l.357.179v.357l1.071.893v.357a1.518,1.518,0,0,1,.714.357v.179c.387.248.992.179,1.429.357v.179l1.984.179v.179l1.786.179v.179h.893v.179h.714v.179h.893v.179h.536v.179h1.786v.179h2.143v-.179h1.984v-.179h1.607v-.179h2.321a.285.285,0,0,1,.357-.179v.179h3.036v-.179l3.571-.179v-.179h.714v-.179h.357v-.179l1.786-.179v-.179h.536v-.179h1.25V106.6l.714-.179v-.179l.714-.536.179-.893h.179v-1.071h.179v-.575h.179v-.536h.179c.248-.784-.278-1.984.179-2.5v-2.46l-1.428-1.25v-.2H131.2c.079-1.4.794-1.984,1.25-3.036a8.63,8.63,0,0,1,1.786,1.429l.357.536h.318l.357.536c.387.248.992.169,1.428.357v.179h.536V96.4h1.071a12.083,12.083,0,0,0,3.968.179v-.159h.714V96.6l3.571-.357v-.179h.536v-.179c1.091-.337,2.073.605,3.571.357h.119v-.179l2.678.179h1.984v.179h.714V96.6h2.143c.05,0,.05-.238.357-.179V96.6h.893l.179.357,1.071.179v.179l3.036.179.714.893h.357l.179.357h.357l.357.357h.357v.179h.5l.893,1.071h.536v.179h.556v.179l3.393.357v.179h.575v.179l1.428.179c1.28.436,4.633,1.1,6.071.714h1.607v-.139h1.071V102h.536v-.179h.536v-.179h.357v-.179L186.9,102v.179h.357v.179h1.429c-.228.724-.079.208-.536.536l-.179.357h-.357v.179h-.357l-.714.893h-.357l-.179.357h-.357l-.714.893-1.984,1.786v.357l-.357.179v.357l-.536.357-.179.714-.357.179-.179.536h-.179l-.179.714-.536.357-.357,1.071-.357.179-.357,1.071-.357.179v.357l-.357.357v.357h-.179v.357H178.3v.357l-.357.179v.357h-.179v.357h-.2v.536l-.357.179v.536h-.179v.357h-.179v.357a6.2,6.2,0,0,0-.893,3.036c0,.9-.089,1.875.357,2.321s.327.079.714.357v.179h1.984v-.179l1.607-1.428.179-.714h.179l.179-1.071h.179v-.357h.2v-.536h.179l.179-.714h.179l.179-.893h.179v-.536h.179v-.357h.179v-.536l.357-.179v-.575h.179v-.357h.2v-.357h.179v-.357h.179v-.357h.179l.357-1.071.357-.179v-.536l.357-.179V112.1h.179l.179-.536.357-.179.179-.714.536-.357v-.357l.357-.179v-.357l1.071-.893.179-.536h.318l.179-.357h.357l.714-.893h.357l.536-.714h.357l.179-.357h.357l.179-.357,1.984-.536.179-.357h.357l.179-.357h.357v-.179l.536-.357v-.714h-.179a5.079,5.079,0,0,0-2.321-1.429v-.179c-.486-.179-.913.109-1.25.179.079-.387.109-.506.357-.714v-.179l1.071-.179v-.119h.357v-.179h.714v-.179h.536v-.179h.536l.179-.357c.675-.417.992-.119,1.25-1.071h.536l.893,1.25c1.151.774,2.282.387,3.75.357l1.428-1.25v-.536h.179l-.179-1.984-.536-.357v-.357l-.714-.536V94.46l-.357-.179-.179-.893L201,93.21v-.357l-.714-.536-.179-.357-.536-.179V91.6l-.357-.179v-.357h-.179V90.71l-.357-.179v-.357H198.5v-.357l-.357-.179v-.357l-.357-.179v-.357l-.714-.536v-.357l-.357-.179-.179-.536h-.179v-.357l-.714-.536v-.357L194.574,85v-.357l-.357-.179V84.1l-.536-.357v-.357l-.357-.179v-.357l-.714-.536V81.96l-1.071-.893V80.71l-.357-.179v-.179L190.645,80v-.357l-.536-.357-.179-.536-.357-.179V78.21l-.357-.179-.179-.536h-.179v-.357l-.536-.357v-.4l-.893-.714-.179-.536-.357-.179V74.6L186,73.885v-.357l-.893-.714v-.357l-.893-.714v-.317l-.893-.714v-.357l-1.071-.893V69.1l-2.5-2.321v-.317l-1.984-1.786v-.4h-.357A4.246,4.246,0,0,0,175.8,62.5V62.14c-.446-.129-.288-.089-.536-.357h-.179v-.357l-1.071-.893v-.179h-.357c-.218-.794-.923-1.1-1.429-1.607l-2.321-2.321c-.377-.367-.6-.794-1.071-1.071V55h-.357l-.357-.536-1.786-1.607-.179-.357h-.357l-1.25-1.429H164.2l-.536-.714h-.357l-.536-.714h-.357l-.714-.893h-.357c-.446-.327-.536-.932-1.071-1.25l.179-.893h.179v-.357h.179l-.179-1.428a13.2,13.2,0,0,0-3.393-1.071c-.188-.694-.407-.536-.893-.893l-.893-1.071-.357-.179v-.536h-.179v-.4h-.159v-.357h-.179l-.536-.714h-.357l-.357-.536-.714-.179v-.179h-.357V38.53l-1.071-.357v-.179h-.536v-.179h-.536V37.7l-.714-.179v-.179h-.357v-.179l-.536-.179-.179-.357-.714-.179-.179-.357h-.357c-.327-.268-.2-.744-.714-1.071v-.357l3.75.179v-.179h.536v-.179l.536-.179c.079-.387.109-.506.357-.714a3.968,3.968,0,0,0-1.637-2.837l-.536-.357-.179-1.071h-.179v-.357H148.8l-.179-1.25-.357-.179v-.754l-.357-.179v-.357l-.357-.179v-.179H147.2v-.179h-.357l-.179-.357H146.3L146.124,25h-.3v-.2h-.536v-.179h-.357v-.179h-.714v-.179h-.536v-.159h-.536v-.179h-.357v-.179h-.357V23.57h-.357v-.179h-.714v-.179h-.357v-.179l-2.887-.218H136.69v.179h-.536v.179h-.714v.179h-.357v.179l-2.678.357-.357-1.607,1.607-.179v-.179h.357v-.1l.536-.179c.109-.427.05-.337.357-.536l-.179-1.786-.357-.179a2.143,2.143,0,0,1-.357-.893h-.179v-.179h.179v-.357l1.071-.357v-.179h.714v-.218h.357v-.179l1.071-.179v-.179h.357v-.179l1.071-.179v-.2l3.214.357v.179h.357v.179H143.3v.179h1.786v.179a7.083,7.083,0,0,0,2.678-.179c.427-.188.655-.8,1.607-.536v.179h.714v.179l.893.179v.179h.357v.179h.536V17.3h.357v.179h.546l.179.357,1.071.179v.179l.714.179v.179h.536v.179l1.071.357v.179h.4v.179l.714.179.179.357h.357l.179.357h.357l.179.357h.357l.714.893.536.357.179.714.357.179v.536h.179c.565,1.438.2,3.065.179,4.643v2.341a.285.285,0,0,1,.179.357H161.2V32.7h.179v2.678h.179v.893h.139v.357h.179v.536l.714.536v.357l1.25,1.071.179.357h.357l.357.536.714.179.179.357,1.071.357.179.357,1.071.357.179.357h.357l.179.357h.357l.357.536h.357l.536.714h.357l.357.536.536.179,1.091,1.23h.357l.357.536.536.179,1.428,1.607h.3l.357.536h.179l.179.357h.357l.893,1.071h.357l.357.536h.357l1.25,1.428h.357l.357.536h.357l.536.714h.357l2.351,2.52h.327l.357.714,2.143,1.984v.278l1.25,1.071v.357l1.25,1.071v.357h.357c.2.744.784.992,1.25,1.428l2.857,2.857,4.643,4.821h.357l.357.536h.357l.714.893h.536V72.1h.437l.536.714.714.179.179.357.714.536v.179h.357l.536.714h.357l.179.357h.357l.357.536h.179v.357l.357.179a5.258,5.258,0,0,0,1.429,1.25v.357h.357l.337.556,1.786,1.607.2.377h.357l.536.714h.357l.179.357c.446.208.893-.06,1.25.179v.179l.357.179v.377l.357.179v.357l.536.357v.357l.536.357v.377l.357.179v.357l.536.357v.357l.357.179v.357l.357.179c.208.347.169,1.081.357,1.429l.357.179v.357l.536.357v.357l.536.357,1.25,1.429h.357l.536.714h.357v.179L221.2,92l1.25,1.428.536.357v.357l1.071.893v.357l.714.536v.3l.357.179.893,1.071,1.429,1.25.357.536h.357l.357.536h.357l.714.893,1.786,1.607v.357l1.25,1.071v.357l.893.714,1.607,1.786h.357l.714.893h.357l.893,1.071v.357h.179v.357h.179v.357h.179v.536h.1v.714h.179v.238h-.179V112h-.179v.357h-.179l-.179,1.071h-.179l-.179.714h-.1v.536h-.179v.357h-.179l-.179.893h-.179v.536H236.2v.357h-.179v.357l-.357.179v.357l-1.25,1.071v.357h-.179l-.357.536h-.357l-.179.357H232.27v.179l-1.071.357v.179l-.714.179v.1l-.714.179v.179h-.615v.179l-.714.179v.179h-.278v.179h-.357v.179h-.357v.179h-.357v.179h-.357v.179h-.714v.2h-.536v.179h-.714v.179l-.714.179v.179h-.536v.179l-.714.179v.179h-.6v.179l-.714.179v.179h-.357l-.179.357-.893.179v.179h-.357v.179l-1.071.357v.179l-1.25.179v.179h-.536v.179H215.6v.218h-.536v.179c-.585.179-1.091-.238-1.429-.179v.179l-2.321.179v.179h-1.984v-.179c-.367-.06-.357.179-.357.179h-3.214c-2.123.615-4.871.635-6.944,1.25-1.061.308-2.887-.119-3.968.179h-1.984c-.813,0-3.532.337-3.968.714a4.722,4.722,0,0,1-1.607-.179v-.357a4.8,4.8,0,0,0-1.984,0v.179h-.794v.179H183.8v.179l-1.607.179v.119h-.357v.179l-1.428.179c-.208-1.081-1.21-3.313-2.143-3.571l-.536-1.428c-.357-.109-.159,0-.357-.179a4.6,4.6,0,0,0-1.984.893V128.7h-.179l.179,2.857-2.143.357v.179l-.893.714v.714h-.179v1.428H172l-.536.714H171.1l-.179.357h-.536v.179h-.357v.179l-.714.179v.179h-.536v.179h-.357v.179h-.536v.179h-.357v.179l-1.786.357v.179h-.357v.179l-1.071.179v.179l-1.071-.179v-.179a.5.5,0,0,0-.536.179c-.347,0-.357-.179-.357-.179a2.976,2.976,0,0,0-2.143.536c-.476.308-.3.377-.536.893H159.5v3.036h.218v1.984h.179V146.6h.179v1.984h.179v2.5h.179v2.321a21.676,21.676,0,0,1,.179,4.821v1.607h.179v2.143h.179V163.4h.179v1.786c.9,3.135.109,7.936-.714,10.535l-.357,2.857a29.879,29.879,0,0,1-1.786,4.643v.3h-.179v.357h-.179v.536h-.2l-.179.714h-.179l-.179,1.25h-.179v.357h-.179l-.179,1.428h-.179v.536H156.3l-.179.893h-.179v.357h-.179c-.2.387-.327,1.438,0,1.786.119.446.089.288.357.536v.179h.357l.179.357h.536v.179a8.928,8.928,0,0,0,3.036-.714c.932-.536,1.23-1.984,1.607-3.036v-.714h.179l.179-1.071h.179v-.357h.179v-.536h.179V186.2h.179v-.536h.179l.179-.714h.179l1.428-4.286.536-3.968a25.927,25.927,0,0,0,.714-13.035l.179-1.071h-.179v-1.428h-.179v-3.571h-.179v-.179h.179v-1.429h-.179V152.77h-.1v-1.984h-.179v-1.607h-.179V147.2h-.179c-.208-.675,0-2.242-.357-2.678v-1.071l1.984-.893h.357l.179-.357h.357v-.179h.893v-.179h.357v-.179l1.786-.357v-.179h.536v-.179l.714-.179v-.179h.536v-.179l.714-.179v-.179l.714-.179.179-.357,1.071-.357.536-.714h.357l.179-.357,1.071-.893.357-.536h.714v-.179h.714V136.3h.476v-.179h.714v-.179h1.071v-.04h.536v-.179h.536v-.179h.714v-.179l.714-.179v-.179c.992-.387,1.667.258,2.5,0v-.179h.536v-.179h.536v-.179h.536V134.3h.536v-.179l1.25-.179v-.179h.734v-.179l5.714-.179v-.179h.893v-.179h1.25v-.179h1.984v-.179h.893v-.179h.536v-.179h1.071v-.179h.714v-.218h.714v-.179l4.821-.179.893.179v-.179h.893V131.4h2.143v-.179h1.607v-.179h.893v-.179h1.25v-.179h1.071v-.179h.714v-.179l.893-.179v-.2h.357v-.179h.714V129.6h.536v-.179h.357v-.179h.536v-.179h.3v-.1h.357l.179-.357.714-.179.179-.357h.556l.179-.357h.536v-.179l1.071-.357v-.2h.714V126.8h.536v-.179l1.071-.179v-.179a5.894,5.894,0,0,1,1.25.179c.109-.357,0-.149.179-.357.258-.992,1.379-1.091,2.321-.893l.179-.536a1.984,1.984,0,0,1,.714.179c.8-1.686,2.232-.992,3.571-1.984l.893-1.071v-.357l.714-.536.179-.714.357-.179v-.357l.536-.357v-.357l.357-.179v-.179l.357-.179.179-.714.357-.179.179-1.071h.179l.179-.714h.179v-.714h.179v-.714h.179v-.714h.179l.179-2.321h.179l.536-.714h.179c.208-.3,0-.407.357-.714A5.178,5.178,0,0,0,242.577,108.209ZM118.655,28.927h.179l1.071,1.25c.327-.06.357-.179.357-.179h1.756V29.82h.357c.069,0,.159-.248.357-.357l.179-.893h.179V22.142c0-1.706,0-3.125-1.071-3.75v-.357a6.945,6.945,0,0,1,1.786.893l.179.536.536.357.179.714h.179v.357h.179l.357,1.607h.179v.317h.179v.536h.218l.357,2.5h-.179c-.248.843-.149.218-.714.536l-.179.357h-.536v.179l-.536.357-.2,1.111h-.179c.149,1.339.833,1.667,1.429,2.5l.179.536h.357l.536.714h.179V32.5h.179v.357h.179v.536h.179v.337h.179v.536h.179v.357h.179l.179,1.071h.218l.357,1.607h.179v.4h.179v.714h.179v.714h.179l.179.714h.179c.238.585-.159.6.357,1.071v.536a3.462,3.462,0,0,1-1.25-1.071h-.179v-.357l-.714-.536v-.357h-.179l-.357-.536-.714-.179v-.179l-1.071-.357V37.7h-.536v-.2H124.4V37.32h-.714v-.179h-.714v-.179l-1.25-.179v-.179c-.992-.258-.7-.794-1.071-1.607h-.179l-.179-.714h-.179v-.556h-.179v-.536h-.179v-.357h-.179l-.179-1.25h-.179l-.357-1.786h-.179Zm-1.786-4.643a.734.734,0,0,0,.357-.357h.179v.179c.476.486.1.992.357,1.429h.179v.714l-.893-.714V25h-.179ZM105.62,19.463c.079-.119.238-.119.357-.357,1.24,0,1.984-.357,3.393-.357.6,0,1.458.109,1.786-.179.615-.179.585-.6,1.071-.893a5.655,5.655,0,0,0-.179-2.857h-.179v-.357h-.179v-.575l-1.25-.992c-.377-.516-.278-.724-.893-1.071v-.218h.893v-.179l1.071-.179v-.179c1.548.2,2.222,1.984,3.393,2.678a15.674,15.674,0,0,1-1.428,6.091v.536H113.3l-.357,1.786h-.179c-.526.7-.655.06-1.428.357V22.7h-.357l-.179.357-.357.179a2.609,2.609,0,0,0-.179,1.607h.179v.536h.179v.536h.179c.208.506,0,.546.357.893,0,1.181-.109,1.448-.893,1.786-.159-.347-.4-.893-.536-1.25v-.556h-.179l-.357-1.071h-.179v-.357l-.357-.179-.179-.714-.536-.357v-.357l-.357-.179-.893-1.071h-.357l-.536-.714c-.407-.288-.774-.337-1.071-.714h-.179v-.536c.724-.188.7-.536,1.071-1.071ZM102.941,8.928V8.75h-.536V8.571h-.357V8.392l-1.25-.179V8.035h-.536V7.857h-.536V7.678H99.2V7.5h-.536V7.321H98.13a1.657,1.657,0,0,0-.367-.377V6.785h-.179V6.607c2.619,0,6.19-.159,7.143,1.429h.179l-.179.536C104.162,8.68,103.725,9.176,102.941,8.928Zm.357,25.713.179-.714.357-.179.536-1.786h.179v-.357h.179V31.07h.179l.714-1.984c.684.179.546.407.893.893l.536.357v.417h.179v.357h.179v.357h.179v.278l.357.179.357,1.071.357.179v.357l.357.179.179.714.357.179.179.893.387.218.179.714-2.857.357v-.179h-1.429v.179h-2.321v-.179h-.893s0-.109-.357-.179C102.525,35.534,102.961,35.256,103.3,34.641Zm-5.893-8.214.179-.893L98.3,25v-.357l.714-.536v-.179h.536c.3-.218,1.419.069,1.984.179-.218.784-.427.476-.893.893l-.357.536h-.357l-.179.357H99.39l-.357.536h-.357l-.357.536h-.357l-.179.357c-.417.278-.764.347-1.071.714h-.179C96.662,27.32,97.118,26.973,97.406,26.427Zm-.536,7.5.893-1.071h.357l.357-.536h.357v-.179c.367-.208.4,0,.714-.357h.179c-.119.893-.565,1.171-.893,1.786l-.179.714-.357.179v.357L97.942,35v.357h-.179l-.179.536-2.5-.179c.228-.893,1.141-1.309,1.786-1.786Zm-6.607,3.968a7.5,7.5,0,0,1,3.214.536c.585.179,1.23-.149,1.607.179h.149l-.357.714H94.7v.357l-.357.179-.179.536-.893.714v.357h-.179L92.257,42.5c-1.667-.069-2.063-2.817-1.984-4.643Zm-5.714-4.96.893-1.071.714-.179.149-.436.536-.179-.179.536-.357.139c-.387.635,0,.784-.714,1.25v.179l-.893-.179c-.258,0-.308.159-.714.179.218-.2.337-.139.565-.317Zm0,6.071h.536v1.667l-1.25-.357c.159-.635.546-.744.714-1.389ZM86.871,44.9l.179,1.071a8.563,8.563,0,0,0-.357,1.428c-1.984-.149-3.075-1.925-3.036-4.107,1.528.01,2.173.962,3.214,1.528ZM84.728,62.854c.109-.357,0-.149.179-.357C84.8,62.854,84.926,62.646,84.728,62.854ZM132.4,45l.179.357h.347v.179h.714a5.03,5.03,0,0,0,2.143,0c.3-.367.675-.417,1.071-.714v-.179l.357-.179c.2-.288,0-.407.357-.714a4.077,4.077,0,0,0-.357-1.984h-.179v-.357H136.9v-.337h-.179v-.4h-.179l-.208-.992h-.179v-.4h-.179l-.179-1.071h-.179v-.357h-.179l-.179-.893h-.179v-.536h-.169v-.714h-.179v-.357h-.179v-.714h-.179v-.357H134.2l-.357-2.678,1.071.357.179.357.714.179.179.357.714.179.179.357h.357v.179l.536.179.179.357h.357l.357.536.714.179,1.25,1.428.536.179,1.429,1.607h.357l1.071,1.25.714.179.179.357.536.179v.179h.377l.357.357h.357v.139h.357v.179h.357l.179.357h.377v.179c.367.208.4,0,.714.357s-.079,1.19.179,1.786c0,.089.238,0,.357.536a1.518,1.518,0,0,1,.714.357v.218l.714.179V45h.3v.179h.357l.357.357h.357l.179.357.536.179v.179a1.835,1.835,0,0,0,.893.536l.179,1.071c.367.308.427.665.714,1.071l.536.357,1.25,1.429h.357l.893,1.071.536.179.357.536h.357l.179.357h.357l.179.357.536.179.536.714h.357l.536.714h.377l.536.714.536.179v.357h.179l.357.536a29.055,29.055,0,0,1,3.353,3.036l1.428,1.607.714.536v.357l1.428,1.25c.506.506.8,1.21,1.607,1.429.188.684.536.565.714,1.25.446.119.288.089.536.357h.179v.357h.179l.536.714,1.429,1.25.179.536.893.714v.357l1.28,1.071v.357l1.25,1.071v.357h.179l.536.714.536.357.179.714,1.607,1.389v.357l.536.357v.357l.536.357v.357l.536.357v.357l.536.357V79.6l.357.179v.357l.357.179.179.536h.179v.357l.357.179v.357l.536.357v.357l.357.179v.357l.714.536v.357l.357.179v.357l.714.536v.357l.357.179.179.536.893.714V87.1l.536.357v.357l.357.179.179.536.714.536v.357l.714.536v.357l.357.179.179.536h.179l.179.714.357.179v.357l.357.179.179.714.357.179v.536c.248.536.5.526.536,1.428a6.141,6.141,0,0,0-2.143.357h-.714v.179l-2.143.179v.2l-.714.179v.179h-.357l-.357.536c-.714.327-2.678-.754-3.968-.357l-3.353,1.448-1.786.179a3.809,3.809,0,0,1-1.786.179v-.179h-.714v-.179h-1.28v-.179h-1.25v-.179l-1.984-.179-.893-1.429-1.25-.179v-.179h-.357V95.71h-.536l-.179-.357A8.164,8.164,0,0,0,167,93.567l-3.75-.179c-1.171-.347-2.262-.9-3.393-1.25h-3.036V91.96h-.536v-.179h-.536V91.6h-.992v-.179h-.893v-.159h-1.607v-.2c-.873-.248-2.976.367-3.571.536h-1.428v.179h-.893v.179H146v.179h-.893l-.357.536H144.4v.179h-2.857v-.179l-2.143.179v-.179h-.516V92.5h-.357v-.179h-.357l-.536-.714h-.357v-.179H136.9l-.179-.357h-.357v-.179a7.817,7.817,0,0,0-2.678,0l1.23-3.393V86.424h.179l.179-2.857V81.782h.179V80s.228,0,.179-.357h-.179V79.46l.179-1.429h-.179l.179-.714-.179-3.393h-.179V70.711h-.179V67.675l-.536-3.393V60.711h-.179v-.536H134.2l-.179-1.071-1.428-1.25c-.992,0-3.165.427-3.571.893a4.6,4.6,0,0,0-.714,2.5h.179V62.5h.179v1.25h.179v1.607h.179v1.428h.179V68.39h.179v1.984h.179v1.984h.179v1.786h.218v2.143h.179v1.389h-.179V83.21h-.179v1.429H129.6V85.71h-.179v.714h-.179v.536h-.179V87.5h-.179l-.357,1.071h-.179v.357h-.179l-.179.714-.357.179v.357l-.357.357v.357H127.1v.377l-.357.179V91.8h-.179l-.714,2.143-.357.179v.357l-.714.536v.357l-1.071.893-.179.357h-.357V96.8h-.357v.179h-.536c-.635.258-3.5,1.419-4.464,1.071v-.179c-.486-.218-1.319-.337-1.607-.714V96.8h-.179l-.357-.536h-.357v-.179l-.893-.179v-.179h-.357v-.2l-.893-.179v-.179h-.536V95h-1.071v-.179h-.714v-.179h-.734V94.46h-.357v-.218h-.714v-.179h-.536v-.179h-.714v-.139H105.65v-.179h-.893v-.179H104.4v-.139l-.893-.179v-.218h-.337l-.179-.357h-.357v-.179h-.357v-.179c-.3-.149-.992,0-1.25-.179v-.179H98.12V91.6h-.179v-.179h-.179v-.357h-.179V90.71h-.179v-.357h-.188V89.46h-.179v-.893H96.86v-.536h-.179L96.5,85.889c-1.369-4.414-1.27-10.257-2.678-14.642v-.893h-.179l-.179-1.786a3.591,3.591,0,0,0-1.984-1.786l.179-1.25h-.179v-.714h-.179v-.536h-.179L90.978,62.5H90.8v-.714h-.179l-.179-1.071h-.169l-.357-1.071h-.179v-.357l-.893-.714-.357-.536-.714-.179v-.179c-.744-.3-2.976,0-3.214-.179-.506-.317-.407-.734-.714-1.25h-.179l-.179-.536-.546-.159v-.2h-.357v-.179a7.529,7.529,0,0,0-1.429-.357,1.716,1.716,0,0,0-.536-1.25v-.357l1.607.893h1.429v.179c1.369.387,2.758-.288,3.571-.536h1.061v-.179a2.371,2.371,0,0,1,1.607.357h1.25V54.1h1.111v.179h1.984a14.334,14.334,0,0,1,3.571.357c.7.2,1.677-.218,2.143.179.5.139.446.208.714.536h.179v.536l.536.357c.367.526.278.7.893,1.071v.357a6.319,6.319,0,0,0-1.25.536h-.536l-.179.357h-.357v.179H99.6v.179l-1.786.179v.179h-.6c-.347.149-.724.536-1.071.714a4.018,4.018,0,0,0,0,2.321l.357.179v.357h.179v.357h.179v.714h.179l.357.536h.357a4.425,4.425,0,0,1,1.071.893l1.071.179v-.179h.179v.179c.4,0,.357-.179.357-.179h.754v-.179h.536V65l.536-.179a3.492,3.492,0,0,1,.357-.893l1.984.357c-.367.605-1.061.8-1.429,1.429h-.357c-.149.565-.536.813-.714,1.25l.536,1.607.357.179V69.1l.536.357v.179h.536v.179h.357V70l3.214-.357v-.2h.357v-.179l.536-.179a5.952,5.952,0,0,0,.357-1.786h.179l.714,2.5v2.52H109.6v2.321h.179c.129.7-.238.506-.357.714l-.357,1.786h.179v.893l.357.179a4.236,4.236,0,0,0,3.036,1.071V79.1h.179l.536.179V79.1h1.25v-.179c1.171,0,.794,0,1.25-.714l.357-.179V77.5h.179l-.228-1.111-.357-.179-.179-.714-.357-.179-.357-1.071h-.179v-.357h-.179l-.179-1.071a.288.288,0,0,0,.179-.357h-.179v-.536h-.179v-.357h-.179l-.179-2.857h-.179l-.179-1.25H113.3v-.714h-.208v-.278h-.179v-.536h-.179v-.357h-.179v-.536h-.179v-.556H112.2v-.536l-.357-.179v-.536h-.179a1.984,1.984,0,0,1,.536-1.607l.357-.179c.208-.308,0-.407.357-.714a2.659,2.659,0,0,0-1.071-2.5V57.7l.714-.536v-.179l.536-.179.179-.536.357-.179.357-1.071h.179V54.66h.179l.357-1.071h.179V52.7h.2a3.413,3.413,0,0,0-.357-2.321l-.179-.357a4.444,4.444,0,0,0-3.036,2.5h-.357v.357l-.714.179c-.268.992-1.21.992-1.786,1.607a3.968,3.968,0,0,1-2.143-.536l-.179-.893h-.179l.179-1.428-.357-.179v-.536h-.179v-.357h-.179l-.357-.536-1.607-.179v-.179c-1.1-.347-3.343.347-4.464.357l-7.133-.6v-.179l-.714-.179a9.819,9.819,0,0,1,.536-1.429V46.783h.179v-.159H93.3v-.2h.714v-.179h.357v-.179h.536l.179-.357h.357l.714-.893h.357l.357-.357V44.1l.714-.536v-.357l1.25-1.071v-.357l.357-.179v-.357l.536-.357v-.357l.357-.179.893-1.25a3.373,3.373,0,0,1,1.607,0v.179h.714v.179h2.143v.218l3.036-.179a.456.456,0,0,0,.536.179V39.5h1.429a6.538,6.538,0,0,1,1.607-.357v.179c.7.208.228,0,.536.536h.179v.357l.357.179v.278h.179v.357l.536.357v.357l.357.357v.357h.179v.357h.179v.357h.179v.357l.357.179v.536h.179v.4h.179V45h.179l.179.536.357.179.179.714c.357.516,1.2.6,1.607,1.071a18.174,18.174,0,0,1,2.5-.357,3.363,3.363,0,0,0,.536,1.25l.357.179v.357l.357.179v.357L122.4,50v.357l1.071.893v.337l1.071.893v.357l.357.179v.357l.893.714v.357l.536.357v.357l.536.357v.179c.635.615,1.667.823,2.143,1.607l3.393.357v-.119h.357v-.179h.536V57.14l.714-.179.179-.357,1.25-1.052V55.2l.357-.179v-.556h.179c.238-.754-.754-2.262-1.071-2.5h-.357v-.179a1.389,1.389,0,0,0-.714-.357v-.179h-1.071v.179h-1.607v-.179l-.357-.179v-.357l-.536-.357V50l-.357-.179v-.357l-.893-.714-.179-.536-.536-.179v-.357h-.179v-.357h-.149c.387-.456,1.071-.6,1.607-.893h.377l.179-.536.357-.179.536-1.607c.774.218.605.565,1.071.893ZM91.335,190.7h-.179v-.357h-.179v-.536H90.8v-5.535h-.179v-2.321l-.179-5.357h-.169V172.63l-.179-.357h.179v-.655h-.179v-1.607c0-1.7.218-3.968-.179-5.357v-1.607h-.179v-1.071h-.179v-.714h-.179v-.714H89.2v-.714h-.179c-.367-1.19.357-2.639-.357-3.393-.427-.744-.992-.774-1.786-1.071a2.371,2.371,0,0,1-.714.536l-.179.893h-.179l-.179,3.214h.179v1.429h.179v1.071h.179v1.428h.139v2.143h.179l-.179,1.409a20.257,20.257,0,0,1-.357,4.821l.179,12.678v2.857h.179c.308,1.091-.129,2.867.179,3.968v1.25h.179c.129.516.188.6.714.714a5.466,5.466,0,0,0,2.5.357l1.25-.893.179-1.786h-.179v-.179C91.206,191.151,91.464,191.112,91.335,190.7Zm27.32-111.78L117.762,80l-1.071.357v.179l-.536.179-.179.357h-.357l-.357.714c-.179.069-.794-.288-.893-.357v-.179a3.68,3.68,0,0,0-2.5-.536v.179l-2.321.179v.179h-.714v.179l-.714.179v.179l-.893.714V84.48h.179v.357l.724.476.179.893.357.179v.357h.179l.357.536a6.131,6.131,0,0,0,3.571.536v-.179l1.071-.179V87.3h.357v-.179l1.429-.179v-.179h.893V86.6h.893v-.179h.714v-.179h.536l.179-.357,1.071-.357.179-.536h.179v-.357h.179l.179-1.429,1.071-.893V81.96h.179l.179-1.071h.179a5.04,5.04,0,0,0-.893-2.143,3.968,3.968,0,0,0-2.688.179Zm3.214-16.606v-.357h-.179v-.179l-.536-.179v-.179h-.893v-.179l-1.786.179V61.6h-.536v.179l-.714.179v.179h-.357l-.536.714H115.8l-1.25.893v1.428c.288.248.516.913.714,1.071h.357l.179.357h.536v.179h.536v.179a3.621,3.621,0,0,0,1.607-.357l1.607-.179v-.179l1.071-.357v-.179l.714-.179v-.179L122.4,65c.109-.357,0-.149.179-.357l-.179-1.984Zm25.356,57.14v-.179L145.8,119.1v.179c-1.319,0-1.18.06-1.786.714l-.357.179v.536h-.179v.317H143.3v2.321h-.179v.893h-.179l-.179.893h-.179v.357H142.4l-.179,1.25h-.179v.714h-.189v.714h-.179l-.357,3.393h-.179v.536h-.179v.357h-.179v.536a6.2,6.2,0,0,0-.714,3.214c.347.308.149.417.357.714h.179l.357.536h.357v.179h.357l.179.357a4.355,4.355,0,0,0,2.5.357v-.179h.357c.06,0,.179-.258.357-.357l1.25-6.944h.179v-.357h.179V129.8h.179v-.536h.179v-.714h.179v-.536h.179v-.357h.179v-.536h.238v-.536h.179v-.357h.179v-.536h.179l.179-1.429.357-.179v-.536h.179l.179-1.984C148.445,120.956,148.326,119.756,147.225,119.458Z" transform="translate(-0.003)" fill="#231815" fill-rule="evenodd"/>
</svg>
