<svg xmlns="http://www.w3.org/2000/svg" width="160.17" height="82.958" viewBox="0 0 160.17 82.958">
  <g id="c" transform="translate(1.008 0)">
    <g id="グループ_609" data-name="グループ 609">
      <g id="グループ_608" data-name="グループ 608" transform="translate(86.168 1.179)">
        <path id="パス_536" data-name="パス 536" d="M116.976,1.09C98.63,1.09,86.97,15.15,86.97,36.455c0,20.029,10.309,39.341,26.791,41.57h.139l1.79,3.1a1.489,1.489,0,0,0,2.583,0l1.79-3.1h.139c16.482-2.24,26.791-21.54,26.791-41.57,0-21.3-11.66-35.365-30.006-35.365Z" transform="translate(-81.015 -1.09)" fill="#fff" stroke="#231815" stroke-miterlimit="10" stroke-width="2"/>
        <path id="パス_537" data-name="パス 537" d="M143.2,37.67c5.551.321,6.623,4.608,5.551,6.751s-3.033,2.143-2.593,5.358-3.354,5.4-5.744,2.165" transform="translate(-77.186 1.531)" fill="none" stroke="#231815" stroke-miterlimit="10" stroke-width="2"/>
        <path id="パス_538" data-name="パス 538" d="M87.336,37.67c-5.551.321-6.623,4.608-5.551,6.751s3.033,2.143,2.593,5.358,3.354,5.4,5.744,2.165" transform="translate(-81.414 1.531)" fill="none" stroke="#231815" stroke-miterlimit="10" stroke-width="2"/>
      </g>
      <path id="パス_539" data-name="パス 539" d="M13.9,75.4a150.1,150.1,0,0,0,15.86-1.061v7.394h34.5S56.179,67.99,65.7,54.241,75.212,13.014,58.3,6.67C41.379.347,24.469,2.459,17.074,9.853c-4.79,4.79-11.981,10.781-9.516,22.194C9.6,41.542,3.464,45.282,1.289,48.99A2.046,2.046,0,0,0,2.1,51.841c1.254.643,4.962,2.786,5.455,4.522.975,3.4-3.9,1.736-1.168,4.469,1.072,1.072,1.286,2.8.107,2.476s-2.25,1.811-1.179,2.883S-.029,75.4,13.9,75.4Z" transform="translate(-1.007 0.221)" fill="#fff" stroke="#231815" stroke-miterlimit="10" stroke-width="2"/>
      <path id="パス_540" data-name="パス 540" d="M124.124,1.994c10.534,0,23.4,19.933,14.8,32.568a7.908,7.908,0,0,0,.6,9.9l5.5,5.894a57.9,57.9,0,0,0,1.972-15c0-21.3-11.66-35.365-30.006-35.365S86.98,14.05,86.98,35.355a57.9,57.9,0,0,0,1.972,15l5.208-5.9a7.935,7.935,0,0,0,.482-9.72c-8.488-12.71,6.805-32.9,14.489-32.9" transform="translate(5.153 0.01)" fill="#231815"/>
      <path id="パス_541" data-name="パス 541" d="M70.835,22.86a5.162,5.162,0,0,1-5.358,0S44.044,10,36.542,27.146c0,0-8.573,13.932,3.14,13.942-.525-3.5,5.594-7.148,5.487,0,.246,3.172-3.987,8.455-3.987,8.455-1.8,1.457,20.1,26.984,23.255,3.172,10.674-12.7,8.53-22.344,6.387-29.846Z" transform="translate(1.323 1.317)" fill="#231815"/>
    </g>
  </g>
</svg>
