<svg xmlns="http://www.w3.org/2000/svg" width="160.17" height="84.483" viewBox="0 0 160.17 84.483">
  <g id="b" transform="translate(1.008 10)">
    <g id="c" transform="translate(0 -10)">
      <g id="グループ_599" data-name="グループ 599">
        <g id="グループ_598" data-name="グループ 598" transform="translate(86.168 2.702)">
          <path id="パス_506" data-name="パス 506" d="M116.976,2.52C98.63,2.52,86.97,16.58,86.97,37.885c0,20.029,10.309,39.341,26.791,41.57h.139l1.79,3.1a1.489,1.489,0,0,0,2.583,0l1.79-3.1h.139c16.482-2.24,26.791-21.54,26.791-41.57,0-21.3-11.66-35.365-30.006-35.365Z" transform="translate(-81.015 -2.52)" fill="#fff" stroke="#231815" stroke-miterlimit="10" stroke-width="2"/>
          <path id="パス_507" data-name="パス 507" d="M143.2,39.11c5.551.321,6.623,4.608,5.551,6.751S145.715,48,146.154,51.22s-3.354,5.4-5.744,2.165" transform="translate(-77.186 0.102)" fill="none" stroke="#231815" stroke-miterlimit="10" stroke-width="2"/>
          <path id="パス_508" data-name="パス 508" d="M87.336,39.11c-5.551.321-6.623,4.608-5.551,6.751S84.818,48,84.378,51.22s3.354,5.4,5.744,2.165" transform="translate(-81.414 0.102)" fill="none" stroke="#231815" stroke-miterlimit="10" stroke-width="2"/>
        </g>
        <path id="パス_509" data-name="パス 509" d="M146.983,37.885c0-21.3-11.66-35.365-30.006-35.365S86.97,16.58,86.97,37.885a57.9,57.9,0,0,0,1.972,15l10.031-4.951a10.72,10.72,0,0,1,10.149.354l3.022,1.768a9.306,9.306,0,0,0,9.6-.129l2.39-1.479a10.71,10.71,0,0,1,10.213-.589l10.674,5.026a57.9,57.9,0,0,0,1.972-15Z" transform="translate(5.153 0.182)" fill="#231815"/>
        <path id="パス_510" data-name="パス 510" d="M13.9,76.836a150.1,150.1,0,0,0,15.86-1.061V83.17h34.5S56.179,69.431,65.7,55.682,75.212,14.455,58.3,8.111,24.469,3.888,17.074,11.294c-4.79,4.79-11.981,10.781-9.516,22.194C9.6,42.982,3.464,46.722,1.289,50.43A2.046,2.046,0,0,0,2.1,53.281c1.254.643,4.962,2.786,5.455,4.522.975,3.4-3.9,1.736-1.168,4.469,1.072,1.072,1.286,2.8.107,2.476s-2.25,1.811-1.179,2.883S-.029,76.836,13.9,76.836Z" transform="translate(-1.007 0.314)" fill="#fff" stroke="#231815" stroke-miterlimit="10" stroke-width="2"/>
        <path id="パス_511" data-name="パス 511" d="M6.13,25.345c48.482-5.1,9.238,18.808,35.493,20.083-.525-3.5,5.594-7.148,5.487,0,.246,3.172-3.987,8.455-3.987,8.455-1.8,1.457,20.1,26.984,23.255,3.172C102.7,10.127,21.3-26.652,6.13,25.345Z" transform="translate(-0.64 0.001)" fill="#231815"/>
      </g>
    </g>
  </g>
</svg>
