<svg xmlns="http://www.w3.org/2000/svg" width="159.676" height="84.277" viewBox="0 0 159.676 84.277">
  <g id="c" transform="translate(1.009 0)">
    <g id="グループ_613" data-name="グループ 613">
      <g id="グループ_612" data-name="グループ 612" transform="translate(85.889 2.283)">
        <path id="パス_548" data-name="パス 548" d="M116.656,2.14C98.364,2.226,86.8,16.3,86.91,37.549c.1,19.969,10.471,39.17,26.914,41.317h.139l1.8,3.077a1.485,1.485,0,0,0,2.575-.011l1.763-3.1h.139c16.422-2.308,26.6-21.6,26.508-41.584-.107-21.241-11.8-35.206-30.088-35.109Z" transform="translate(-81.008 -2.14)" fill="#fff" stroke="#231815" stroke-miterlimit="10" stroke-width="2"/>
        <path id="パス_549" data-name="パス 549" d="M143.133,38.59c5.535.288,6.624,4.562,5.567,6.7s-3.013,2.148-2.554,5.353-3.323,5.4-5.716,2.19" transform="translate(-77.344 0.356)" fill="none" stroke="#231815" stroke-miterlimit="10" stroke-width="2"/>
        <path id="パス_550" data-name="パス 550" d="M87.267,38.86c-5.535.342-6.582,4.626-5.5,6.753s3.034,2.126,2.607,5.332,3.376,5.364,5.738,2.126" transform="translate(-81.386 0.374)" fill="none" stroke="#231815" stroke-miterlimit="10" stroke-width="2"/>
      </g>
      <path id="パス_551" data-name="パス 551" d="M13.982,76.737a148.632,148.632,0,0,0,15.8-1.133l.032,7.372,34.4-.171S56.1,69.14,65.513,55.4,74.8,14.253,57.906,8.014,24.175,3.964,16.834,11.379c-4.744,4.8-11.892,10.813-9.381,22.181,2.094,9.456-4.017,13.206-6.176,16.914A2.043,2.043,0,0,0,2.1,53.316c1.25.641,4.958,2.757,5.46,4.488.994,3.387-3.878,1.752-1.143,4.466,1.068,1.068,1.293,2.789.118,2.468S4.3,66.554,5.37,67.623s-5.289,9.2,8.6,9.125Z" transform="translate(-0.999 0.296)" fill="#fff" stroke="#231815" stroke-miterlimit="10" stroke-width="2"/>
      <path id="パス_552" data-name="パス 552" d="M6.01,25.429C56.494,4.1,15.316,44.127,41.493,45.281c-.534-3.483,5.545-7.148,5.47-.032.256,3.163-3.932,8.451-3.932,8.451-1.784,1.464,20.172,26.808,23.2,3.045C102.213,9.787,20.883-26.487,6.01,25.429Z" transform="translate(-0.656 -0.003)" fill="#231815"/>
      <path id="パス_553" data-name="パス 553" d="M116.676,2.14C98.384,2.225,86.823,16.3,86.93,37.549A57.158,57.158,0,0,0,88.971,52.5l9.979-4.979a10.686,10.686,0,0,1,10.118.31l3.013,1.742a9.279,9.279,0,0,0,9.573-.171l2.372-1.485a10.691,10.691,0,0,1,10.172-.641l10.663,4.958a57.376,57.376,0,0,0,1.891-14.969c-.107-21.241-11.8-35.206-30.088-35.109Zm.1,19.446c-2.949.011-5.353-1.645-5.364-3.718s2.372-3.75,5.321-3.761,5.353,1.645,5.364,3.718S119.721,21.575,116.772,21.586Z" transform="translate(4.883 0.144)" fill="#231815"/>
    </g>
  </g>
</svg>
