<svg xmlns="http://www.w3.org/2000/svg" width="160.17" height="82.779" viewBox="0 0 160.17 82.779">
  <g id="c" transform="translate(1.008 0.561)">
    <g id="グループ_621" data-name="グループ 621">
      <g id="グループ_620" data-name="グループ 620" transform="translate(86.168 0.439)">
        <path id="パス_572" data-name="パス 572" d="M116.976,1C98.63,1,86.97,15.06,86.97,36.365c0,20.029,10.309,39.341,26.791,41.57h.139l1.79,3.1a1.489,1.489,0,0,0,2.583,0l1.79-3.1h.139c16.482-2.24,26.791-21.54,26.791-41.57C146.993,15.06,135.334,1,116.987,1Z" transform="translate(-81.015 -1)" fill="#fff" stroke="#231815" stroke-miterlimit="10" stroke-width="2"/>
        <path id="パス_573" data-name="パス 573" d="M143.2,37.58c5.551.321,6.623,4.608,5.551,6.751s-3.033,2.143-2.593,5.358-3.354,5.4-5.744,2.165" transform="translate(-77.186 1.621)" fill="none" stroke="#231815" stroke-miterlimit="10" stroke-width="2"/>
        <path id="パス_574" data-name="パス 574" d="M87.336,37.58c-5.551.321-6.623,4.608-5.551,6.751s3.033,2.143,2.593,5.358,3.354,5.4,5.744,2.165" transform="translate(-81.414 1.621)" fill="none" stroke="#231815" stroke-miterlimit="10" stroke-width="2"/>
      </g>
      <path id="パス_575" data-name="パス 575" d="M13.9,75.306a150.1,150.1,0,0,0,15.86-1.061v7.394h34.5S56.179,67.9,65.7,54.151,75.212,12.924,58.3,6.58C41.379.257,24.469,2.369,17.074,9.763c-4.79,4.79-11.981,10.781-9.516,22.194C9.6,41.452,3.464,45.192,1.289,48.9A2.046,2.046,0,0,0,2.1,51.751c1.254.643,4.962,2.786,5.455,4.522.975,3.4-3.9,1.736-1.168,4.469,1.072,1.072,1.286,2.8.107,2.476S4.247,65.028,5.318,66.1-.029,75.306,13.9,75.306Z" transform="translate(-1.007 -0.429)" fill="#fff" stroke="#231815" stroke-miterlimit="10" stroke-width="2"/>
      <path id="パス_576" data-name="パス 576" d="M39.964,2.51c17.146,2.143-26.331,39.437-.075,40.712-.525-3.5,5.594-7.148,5.487,0,.246,3.172-3.987,8.455-3.987,8.455-1.8,1.457,20.1,26.984,23.255,3.172C91.4,7.869,43.179-.7,39.964,2.51Z" transform="translate(1.159 -0.496)" fill="#231815"/>
      <path id="パス_577" data-name="パス 577" d="M117.5,25.549c24.648,0,25.1,17.832,27.863,22.5C151.79,15.9,134.676.59,116.961.59S82.132,15.9,88.562,48.054c2.765-4.672,4.287-22.5,28.935-22.5Z" transform="translate(5.168 -0.59)" fill="#231815"/>
    </g>
  </g>
</svg>
