<svg id="レイヤー_1" data-name="レイヤー 1" xmlns="http://www.w3.org/2000/svg" width="90.048" height="30.492" viewBox="0 0 90.048 30.492">
  <path id="パス_47" data-name="パス 47" d="M18.162,25.974h-.076L4.466,4.67H0v28H4.088V11.026h.076L18.01,32.667h4.235v-28H18.162Z" transform="translate(0 -2.708)"/>
  <path id="パス_48" data-name="パス 48" d="M193.5,8.417V4.67H178.41v28H193.5V28.923H182.5V20.412H193.5V16.664H182.5V8.417Z" transform="translate(-103.457 -2.708)"/>
  <path id="パス_49" data-name="パス 49" d="M112.079,0h-4.088V1.97h0V20.8c0,3.445-1.97,5.94-5.3,5.94s-5.319-2.458-5.319-5.94V1.962H93.3V21.107c0,5.827,4.126,9.385,9.385,9.385s9.394-3.521,9.394-9.385V1.962h0Z" transform="translate(-54.103)"/>
</svg>
